<svg xmlns="http://www.w3.org/2000/svg" width="204" height="213" viewBox="0 0 204 213"><defs><filter id="a" width="200%" height="200%" x="-50%" y="-50%"><feMorphology in="SourceGraphic" operator="dilate" result="SvgjsFeMorphology1016Out"/><feOffset dy="12" in="SvgjsFeMorphology1016Out" result="SvgjsFeOffset1017Out"/><feGaussianBlur in="SvgjsFeOffset1017Out" result="SvgjsFeGaussianBlur1018Out" stdDeviation="5"/><feComposite in="SvgjsFeGaussianBlur1018Out" in2="SourceAlpha" operator="out" result="SvgjsFeComposite1019Out"/></filter><filter id="b" width="200%" height="200%" x="-50%" y="-50%"><feMorphology in="SourceGraphic" operator="dilate" result="SvgjsFeMorphology1023Out"/><feOffset dy="12" in="SvgjsFeMorphology1023Out" result="SvgjsFeOffset1024Out"/><feGaussianBlur in="SvgjsFeOffset1024Out" result="SvgjsFeGaussianBlur1025Out" stdDeviation="5"/><feComposite in="SvgjsFeGaussianBlur1025Out" in2="SourceAlpha" operator="out" result="SvgjsFeComposite1026Out"/></filter></defs><path fill="#ebeef4" fill-opacity=".5" d="M-32 9023c0-29.27 23.28-53 52-53s52 23.73 52 53-23.28 53-52 53-52-23.73-52-53z" filter="url(#a)" transform="translate(83 -8927)"/><path fill="none" stroke="#ff5656" stroke-dasharray="1 24 1 25" stroke-linecap="round" stroke-miterlimit="50" stroke-width="6" d="M51 96c0-29.27 23.28-53 52-53s52 23.73 52 53-23.28 53-52 53-52-23.73-52-53z"/><path fill="#ebeef4" fill-opacity=".5" d="M-73 9023.5c0-52.2 41.19-94.5 92-94.5s92 42.3 92 94.5-41.19 94.5-92 94.5-92-42.3-92-94.5z" filter="url(#b)" transform="translate(83 -8927)"/><path fill="none" stroke="#ff5656" stroke-dasharray="1 28 1 28" stroke-linecap="round" stroke-miterlimit="50" stroke-width="4" d="M10 96.5C10 44.3 51.19 2 102 2s92 42.3 92 94.5-41.19 94.5-92 94.5-92-42.3-92-94.5z"/></svg>