<svg xmlns="http://www.w3.org/2000/svg" width="36" height="36" viewBox="0 0 36 36"><defs><clipPath id="a"><path fill="#fff" d="M1126 1256a18 18 0 1 1 36 0 18 18 0 0 1-36 0z"/></clipPath></defs><path fill="#fff" d="M28.04 13H8.65a.65.65 0 0 0-.65.64c0 .36.29.65.65.65h19.39c.36 0 .64-.29.64-.65a.64.64 0 0 0-.64-.64zM24.67 18H12.65a.65.65 0 0 0-.65.64c0 .36.29.65.65.65h12.02c.36 0 .65-.29.65-.65a.65.65 0 0 0-.65-.64zM24.67 22H12.65a.65.65 0 0 0-.65.64c0 .36.29.65.65.65h12.02c.36 0 .65-.29.65-.65a.65.65 0 0 0-.65-.64z"/><path fill="none" stroke="#fff" stroke-miterlimit="50" stroke-width="3" d="M1126 1256a18 18 0 1 1 36 0 18 18 0 0 1-36 0z" clip-path="url(&quot;#a&quot;)" transform="translate(-1126 -1238)"/></svg>