<svg xmlns="http://www.w3.org/2000/svg" width="59" height="59" viewBox="0 0 59 59"><path fill="#fff" d="M29.03 37.05a8.03 8.03 0 0 1 0-16.05 8.03 8.03 0 0 1 0 16.05zm0-13.91a5.9 5.9 0 1 0 0 11.79 5.9 5.9 0 0 0 0-11.79zM29.29 16.25c.6 0 1.08-.48 1.08-1.07V3.66l2.39 2.39c.22.21.49.32.76.32s.54-.11.76-.32c.41-.41.41-1.1 0-1.51L30.05.31a1.08 1.08 0 0 0-1.51 0l-4.23 4.23c-.41.41-.41 1.1 0 1.51.42.42 1.1.42 1.52 0l2.39-2.39v11.52c0 .6.48 1.07 1.07 1.07zM24.31 53.72l4.23 4.22c.21.22.48.32.75.32.28 0 .55-.1.76-.32l4.23-4.22a1.1 1.1 0 0 0 0-1.52 1.1 1.1 0 0 0-1.52 0l-2.39 2.39V43.08c0-.59-.48-1.08-1.08-1.08-.59 0-1.07.49-1.07 1.08v11.51l-2.39-2.39a1.1 1.1 0 0 0-1.52 0 1.1 1.1 0 0 0 0 1.52zM4.54 34.28c.21.21.48.32.75.32.28 0 .55-.11.76-.32.42-.42.42-1.1 0-1.52l-2.39-2.39h11.52a1.07 1.07 0 0 0 0-2.15H3.66l2.39-2.39c.42-.42.42-1.11 0-1.52a1.08 1.08 0 0 0-1.51 0L.31 28.54c-.41.41-.41 1.1 0 1.51zM42 29.29c0 .6.49 1.08 1.08 1.08h11.51l-2.39 2.39a1.1 1.1 0 0 0 0 1.52c.22.21.49.32.76.32s.55-.11.76-.32l4.22-4.23c.42-.41.42-1.1 0-1.51l-4.22-4.23a1.1 1.1 0 0 0-1.52 0 1.1 1.1 0 0 0 0 1.52l2.39 2.39H43.08c-.61 0-1.08.48-1.08 1.07zM16.13 9.08c0-.59-.48-1.08-1.08-1.08H9.08C8.49 8 8 8.49 8 9.08v5.97a1.07 1.07 0 1 0 2.15 0v-3.38l8.15 8.14c.21.22.48.32.76.32.27 0 .54-.1.75-.32.42-.41.42-1.1 0-1.51l-8.14-8.15h3.38c.6 0 1.08-.48 1.08-1.07zM38.32 39.83l8.14 8.14h-3.38c-.59 0-1.08.48-1.08 1.08 0 .59.49 1.07 1.08 1.07h5.98c.59 0 1.07-.48 1.07-1.07v-5.98c0-.59-.48-1.08-1.07-1.08-.6 0-1.08.49-1.08 1.08v3.38l-8.15-8.14a1.08 1.08 0 0 0-1.51 0 1.06 1.06 0 0 0 0 1.52zM9.08 41.99c-.59 0-1.08.49-1.08 1.08v5.98c0 .59.49 1.07 1.08 1.07h5.97a1.07 1.07 0 1 0 0-2.15h-3.38l8.14-8.14c.42-.42.42-1.11 0-1.52a1.08 1.08 0 0 0-1.51 0l-8.15 8.14v-3.38c0-.59-.48-1.08-1.07-1.08zM38.32 19.81c.21.22.48.32.76.32.27 0 .54-.1.75-.32l8.15-8.14v3.38a1.08 1.08 0 1 0 2.15 0V9.08c0-.59-.48-1.08-1.07-1.08h-5.98C42.49 8 42 8.49 42 9.08c0 .59.49 1.07 1.08 1.07h3.38l-8.14 8.15c-.43.42-.43 1.1 0 1.51z"/></svg>