<svg xmlns="http://www.w3.org/2000/svg" width="53.65" height="44.65" viewBox="0 0 53.65 44.65"><path fill="#fff" d="M6.6 22.33a6.36 6.36 0 0 0-6.27 6.43 6.37 6.37 0 0 0 6.28 6.43 6.37 6.37 0 0 0 6.29-6.43 6.36 6.36 0 0 0-6.3-6.43zm0 10.37a3.9 3.9 0 0 1-3.83-3.94 3.9 3.9 0 0 1 3.84-3.94 3.9 3.9 0 0 1 3.85 3.94A3.9 3.9 0 0 1 6.6 32.7zM46.6 10.33a6.36 6.36 0 0 0-6.27 6.43 6.37 6.37 0 0 0 6.28 6.43 6.37 6.37 0 0 0 6.29-6.43 6.36 6.36 0 0 0-6.3-6.43zm0 10.37a3.9 3.9 0 0 1-3.83-3.94 3.9 3.9 0 0 1 3.84-3.94 3.9 3.9 0 0 1 3.85 3.94 3.9 3.9 0 0 1-3.85 3.94z"/><path fill="none" stroke="#fff" stroke-linecap="square" stroke-miterlimit="50" stroke-width="2.3" d="M2.33 29.06s-.2 13.56 21.93 13.56 27.98-14.3 27.98-14.3M2.33 1.33s-.23 14.29 21.9 14.29S52.2 1.32 52.2 1.32"/></svg>