<svg xmlns="http://www.w3.org/2000/svg" width="56" height="56" viewBox="0 0 56 56"><path fill="#fff" d="M28.3 20a8.3 8.3 0 1 0 .01 16.61A8.3 8.3 0 0 0 28.3 20zm0 14.23a5.94 5.94 0 1 1 .01-11.87 5.94 5.94 0 0 1-.01 11.87z"/><path fill="#fff" d="M47.58 9a27.25 27.25 0 0 0-33.95-3.72 5.9 5.9 0 0 0-7.98.37 5.9 5.9 0 0 0-.37 7.98A27.25 27.25 0 0 0 9 47.58a27.1 27.1 0 0 0 19.29 7.99 27.1 27.1 0 0 0 19.29-7.99 27.1 27.1 0 0 0 7.99-19.29A27.1 27.1 0 0 0 47.58 9zM7.32 7.32a3.57 3.57 0 0 1 5.25.24l.02.02c.52.64.81 1.43.81 2.26a3.5 3.5 0 0 1-1.05 2.51 3.5 3.5 0 0 1-2.51 1.05c-.83 0-1.62-.29-2.26-.81l-.02-.02a3.52 3.52 0 0 1-1.28-2.73c0-.95.37-1.85 1.04-2.52zM45.9 45.9a24.72 24.72 0 0 1-17.61 7.3 24.72 24.72 0 0 1-17.61-7.3 24.88 24.88 0 0 1-3.54-30.78 5.97 5.97 0 0 0 6.89-1.09 5.9 5.9 0 0 0 1.09-6.89 24.88 24.88 0 0 1 30.78 3.54 24.93 24.93 0 0 1 0 35.22z"/><path fill="#fff" d="M44.94 23.04A17.85 17.85 0 0 0 27.79 10a17.8 17.8 0 0 0-12.45 30.5A1.19 1.19 0 0 0 17 38.8a15.3 15.3 0 0 1-4.63-11.01c0-8.5 6.92-15.42 15.42-15.42 6.81 0 12.85 4.56 14.78 11a4.79 4.79 0 0 0 0 8.84 15.52 15.52 0 0 1-19.19 10.36 1.18 1.18 0 1 0-.67 2.27 17.74 17.74 0 0 0 16.3-3.24 17.88 17.88 0 0 0 5.93-9.06 4.8 4.8 0 0 0 0-9.5zm-.55 7.16a2.41 2.41 0 1 1 0-4.82 2.41 2.41 0 0 1 0 4.82z"/></svg>