<svg xmlns="http://www.w3.org/2000/svg" width="64" height="70" viewBox="0 0 64 70"><path fill="#1d79b1" d="M35.94 25.58A6.08 6.08 0 0 0 38 21.02V10.7C38 4.8 33.24 0 27.38 0h-2.2c-5.85 0-10.61 4.8-10.61 10.7v10.32c0 1.76.75 3.41 2.06 4.56v8.68a82.87 82.87 0 0 0-14.32 9.33A6.38 6.38 0 0 0 0 48.53v7.07c0 .78.62 1.4 1.39 1.4.77 0 1.38-.62 1.38-1.4v-7.07c0-1.09.48-2.1 1.31-2.78a79.22 79.22 0 0 1 14.3-9.25 1.86 1.86 0 0 0 1.03-1.66v-9.95c0-.47-.23-.91-.61-1.16a3.25 3.25 0 0 1-1.45-2.71V10.7a7.89 7.89 0 0 1 7.85-7.91h2.18a7.89 7.89 0 0 1 7.85 7.91v10.32c0 1.09-.55 2.1-1.45 2.71-.39.25-.61.69-.61 1.16v9.95c0 .77.61 1.4 1.38 1.4a1.4 1.4 0 0 0 1.39-1.4z"/><path fill="#1d79b1" d="M29.55 37c-.81 0-1.45.63-1.45 1.41 0 .58-.27 1.12-.68 1.49l-.25.2c-.33.22-.73.34-1.17.34-1.16 0-2.1-.91-2.1-2.03 0-.78-.64-1.41-1.45-1.41-.8 0-1.45.63-1.45 1.41 0 1.15.41 2.2 1.1 3.03l-1.07 24.09c-.02.41.16.83.48 1.11l3.4 2.99a1.45 1.45 0 0 0 1.94 0l3.46-3.03c.32-.29.5-.68.48-1.11l-1.11-23.81c.82-.87 1.32-2 1.32-3.27 0-.77-.66-1.41-1.45-1.41zm-3.58 30L24 65.29 24.99 43a5.62 5.62 0 0 0 1.97.04L28 65.24zM59.89 38.24a13.63 13.63 0 0 0-19.79 0 14.9 14.9 0 0 0-1.19 19.11 4.23 4.23 0 0 1-1.64 1.87 1.95 1.95 0 0 0-1.02 2.04c.13.83.76 1.48 1.56 1.62.34.06.68.09 1.05.09 1.64 0 3.37-.55 4.84-1.51a13.71 13.71 0 0 0 16.21-2.7A14.66 14.66 0 0 0 64 48.51a14.73 14.73 0 0 0-4.11-10.27zm-2.09 18.4A10.74 10.74 0 0 1 50.01 60a10.6 10.6 0 0 1-5.57-1.58 1.28 1.28 0 0 0-1.51.1c-.7.57-1.41.91-2.02 1.12.39-.57.76-1.25 1.08-2.02.2-.5.12-1.08-.24-1.5a11.91 11.91 0 0 1 .47-15.76 10.72 10.72 0 0 1 15.56 0A11.64 11.64 0 0 1 61 48.5a11.66 11.66 0 0 1-3.2 8.14z"/><path fill="#ff5656" d="M48 48.5a1.5 1.5 0 1 1 3 0 1.5 1.5 0 0 1-3 0zM54 48.5a1.5 1.5 0 1 1 3 0 1.5 1.5 0 0 1-3 0zM44 48.5a1.5 1.5 0 1 1 3 0 1.5 1.5 0 0 1-3 0z"/></svg>