<svg xmlns="http://www.w3.org/2000/svg" width="70" height="63" viewBox="0 0 70 63"><path fill="#1d79b1" d="M50.17 33.52c-.7-.32-1.52 0-1.84.73a21.64 21.64 0 0 1-5.06 7.23c-.28.27-.44.64-.44 1.05v17.64h-23.8v-5.3c0-.42-.18-.81-.47-1.08a1.38 1.38 0 0 0-1.11-.33l-6.38.98a3.4 3.4 0 0 1-3.25-3.43v-8.53a1.4 1.4 0 0 0-1.38-1.42H4.28c-.69 0-1.21-.2-1.4-.52-.2-.33-.13-.89.19-1.51l4.58-8.98c.1-.2.16-.43.16-.66v-3.86c0-8.39 4.79-16.08 12.2-19.62a20.46 20.46 0 0 1 8.07-2.06 1.42 1.42 0 0 0 1.34-1.48A1.4 1.4 0 0 0 27.97 1a23 23 0 0 0-9.13 2.32A24.65 24.65 0 0 0 5.05 25.53v3.48L.62 37.69c-.78 1.54-.83 3.11-.11 4.32.71 1.21 2.09 1.9 3.77 1.9h.77V51a6.19 6.19 0 0 0 6.11 6.27l.21-.01 4.89-.75v5.07c0 .79.61 1.42 1.39 1.42h26.58a1.4 1.4 0 0 0 1.38-1.42V43.13a24.34 24.34 0 0 0 5.27-7.74 1.43 1.43 0 0 0-.71-1.87z"/><path fill="#1d79b1" d="M63.38 1H37.63A5.69 5.69 0 0 0 32 6.72v15.95a5.69 5.69 0 0 0 5.63 5.72h1.92v6.19c0 .57.34 1.08.85 1.31.18.07.37.11.55.11.35 0 .71-.13.97-.4l7.43-7.22h14.02c3.1 0 5.63-2.57 5.63-5.72V6.72A5.67 5.67 0 0 0 63.38 1zm-.18 24.37H48.81c-.36 0-.69.14-.94.4L42.48 31v-4.23c0-.78-.61-1.4-1.38-1.4h-3.3a2.81 2.81 0 0 1-2.8-2.83V6.84A2.82 2.82 0 0 1 37.8 4h25.39c1.54 0 2.8 1.27 2.8 2.84v15.7H66a2.81 2.81 0 0 1-2.8 2.83z"/><path fill="#ff5656" d="M48 15a2 2 0 1 1 4 0 2 2 0 0 1-4 0zM54 15a2 2 0 1 1 4 0 2 2 0 0 1-4 0zM42 15a2 2 0 1 1 4 0 2 2 0 0 1-4 0z"/></svg>