<svg xmlns="http://www.w3.org/2000/svg" width="52" height="70" viewBox="0 0 52 70"><path fill="#1d79b1" d="M19.19 34.82v-9.95c0-.47-.24-.9-.61-1.16a3.24 3.24 0 0 1-1.43-2.7V10.69c0-4.35 3.49-7.9 7.76-7.9h2.18a7.85 7.85 0 0 1 7.76 7.9v10.32c0 1.08-.54 2.1-1.43 2.7a1.4 1.4 0 0 0-.61 1.16v9.95c0 .71.41 1.35 1.03 1.66a78.7 78.7 0 0 1 14.14 9.26c.81.69 1.28 1.7 1.28 2.78v7.07c0 .78.61 1.4 1.37 1.4.76 0 1.37-.62 1.37-1.4v-7.07a6.4 6.4 0 0 0-2.28-4.94 80.88 80.88 0 0 0-14.17-9.33v-8.69a6.06 6.06 0 0 0 2.03-4.57v-10.3C37.58 4.79 32.88 0 27.09 0h-2.18a10.6 10.6 0 0 0-10.49 10.69v10.32c0 1.76.74 3.42 2.03 4.56v8.69a82.26 82.26 0 0 0-14.17 9.33A6.44 6.44 0 0 0 0 48.54v7.07C0 56.38.61 57 1.37 57c.76 0 1.37-.62 1.37-1.39v-7.07c0-1.09.47-2.1 1.28-2.79a79.39 79.39 0 0 1 14.14-9.25 1.92 1.92 0 0 0 1.03-1.68z"/><path fill="#ff5656" d="M29.54 37c-.81 0-1.45.62-1.45 1.41a2 2 0 0 1-.67 1.49.79.79 0 0 0-.25.2c-.34.21-.75.35-1.17.35a2.08 2.08 0 0 1-2.11-2.04c0-.79-.64-1.41-1.44-1.41-.81 0-1.45.62-1.45 1.41 0 1.15.41 2.2 1.11 3.03l-1.07 24.1c-.01.41.16.82.49 1.11l3.4 2.98c.28.24.63.37.97.37.35 0 .7-.13.96-.37l3.45-3.02c.32-.29.5-.69.49-1.11l-1.12-23.81A4.76 4.76 0 0 0 31 38.42 1.45 1.45 0 0 0 29.54 37zm-3.56 30L24 65.28 24.99 43a5.7 5.7 0 0 0 1.97.04L28 65.23z"/></svg>