<svg xmlns="http://www.w3.org/2000/svg" width="68" height="62" viewBox="0 0 68 62"><path fill="#1d79b1" d="M45.24 25.03v3.54c0 .79.61 1.43 1.38 1.43A1.4 1.4 0 0 0 48 28.57v-3.54c0-1.18-.5-2.3-1.38-3.03a40.65 40.65 0 0 0-6.72-4.55v-3.6a3.83 3.83 0 0 0 1.01-2.6V6.08A6 6 0 0 0 35.04 0h-1.08a6 6 0 0 0-5.87 6.08v5.17c0 .98.37 1.91 1.01 2.6v3.58a41.3 41.3 0 0 0-6.72 4.55A3.96 3.96 0 0 0 21 25.02v3.54c0 .79.61 1.43 1.38 1.43a1.4 1.4 0 0 0 1.38-1.43v-3.54c0-.32.14-.62.38-.83a36.18 36.18 0 0 1 6.83-4.53c.54-.28.89-.87.89-1.49v-4.98c0-.48-.24-.93-.61-1.19a.92.92 0 0 1-.4-.75V6.08c0-1.78 1.4-3.22 3.11-3.22h1.08a3.17 3.17 0 0 1 3.11 3.22v5.17c0 .31-.14.58-.4.75-.39.26-.61.71-.61 1.19v4.98c0 .64.35 1.21.89 1.49.62.32 3.85 1.99 6.83 4.53.24.21.38.51.38.84zM57.75 44.02c-.39.26-.61.71-.61 1.18v4.98c0 .64.35 1.22.89 1.49.62.32 3.85 2.01 6.83 4.54.24.2.38.5.38.82v3.54c0 .79.61 1.43 1.38 1.43A1.4 1.4 0 0 0 68 60.57v-3.54c0-1.18-.5-2.3-1.38-3.03a40.65 40.65 0 0 0-6.72-4.55v-3.6a3.83 3.83 0 0 0 1.01-2.6v-5.17A6 6 0 0 0 55.04 32h-1.08a6 6 0 0 0-5.87 6.08v5.17c0 .98.37 1.91 1.01 2.6v3.6c-1.31.71-4.1 2.32-6.72 4.55A3.97 3.97 0 0 0 41 57.03v3.54c0 .79.61 1.43 1.38 1.43a1.4 1.4 0 0 0 1.38-1.43v-3.54c0-.32.14-.62.38-.82a37 37 0 0 1 6.83-4.54c.54-.27.89-.86.89-1.49V45.2c0-.47-.24-.92-.61-1.18a.95.95 0 0 1-.4-.75V38.1c0-1.78 1.4-3.23 3.11-3.23h1.08a3.18 3.18 0 0 1 3.11 3.23v5.17a.9.9 0 0 1-.4.75zM24.24 57.03v3.54c0 .79.61 1.43 1.38 1.43A1.4 1.4 0 0 0 27 60.57v-3.54c0-1.18-.5-2.3-1.38-3.03a40.65 40.65 0 0 0-6.72-4.55v-3.6a3.83 3.83 0 0 0 1.01-2.6v-5.17A6 6 0 0 0 14.04 32h-1.08a6 6 0 0 0-5.87 6.08v5.17c0 .98.37 1.91 1.01 2.6v3.6C6.79 50.16 4 51.77 1.38 54A3.96 3.96 0 0 0 0 57.03v3.54C0 61.36.61 62 1.38 62a1.4 1.4 0 0 0 1.38-1.43v-3.54c0-.32.14-.62.38-.82a37 37 0 0 1 6.83-4.54c.55-.27.89-.85.89-1.49V45.2c0-.47-.24-.92-.61-1.18a.95.95 0 0 1-.4-.75V38.1c0-1.78 1.4-3.23 3.11-3.23h1.08a3.18 3.18 0 0 1 3.11 3.23v5.17a.9.9 0 0 1-.4.75c-.39.26-.61.71-.61 1.18v4.98c0 .64.35 1.22.89 1.49.62.32 3.85 2 6.83 4.54.24.2.38.49.38.82z"/><path fill="#ff5656" d="M34.5 50c.79 0 1.43-.62 1.43-1.4v-1.89h.16c2.7 0 4.91-2.15 4.91-4.82 0-2.66-2.2-4.81-4.91-4.81h-3.18a2.04 2.04 0 0 1-2.05-2.02c0-1.1.92-1.99 2.05-1.99h5.59a1.4 1.4 0 1 0 0-2.81h-2.58V28.4c0-.78-.64-1.4-1.43-1.4-.8 0-1.43.62-1.43 1.4v1.86h-.15A4.87 4.87 0 0 0 28 35.08c0 2.65 2.2 4.82 4.91 4.82h3.18c1.13 0 2.05.9 2.05 2.01 0 1.1-.92 2.01-2.05 2.01h-5.71c-.79 0-1.43.62-1.43 1.4 0 .78.64 1.41 1.43 1.41h2.69v1.88c0 .77.64 1.39 1.43 1.39z"/></svg>