<svg xmlns="http://www.w3.org/2000/svg" width="69" height="71" viewBox="0 0 69 71"><path fill="#ff5656" d="M46.74 13.32a1.39 1.39 0 0 0 1.99 0c.55-.56.55-1.46 0-2.02l-2.94-2.99h9.76c5.87 0 10.64 4.87 10.64 10.85v6.41c0 .79.63 1.43 1.41 1.43.78 0 1.4-.64 1.4-1.43v-6.43c0-7.55-6.04-13.71-13.45-13.71h-9.76l2.94-2.99c.55-.56.55-1.45 0-2.02a1.39 1.39 0 0 0-1.99 0l-5.33 5.43a1.46 1.46 0 0 0 0 2.03z"/><path fill="#1d79b1" d="M37.38 71h30.24A1.4 1.4 0 0 0 69 69.58V38.42A1.4 1.4 0 0 0 67.62 37H37.38A1.4 1.4 0 0 0 36 38.42v31.15c0 .79.61 1.43 1.38 1.43zM66 40v28H39V40z"/><path fill="#ff5656" d="M1.4 44c-.78 0-1.4.64-1.4 1.43v6.43c0 7.55 6.04 13.71 13.45 13.71h9.76l-2.94 2.99a1.44 1.44 0 0 0 0 2.02 1.4 1.4 0 0 0 1.99 0l5.33-5.43c.55-.56.55-1.46 0-2.02l-5.33-5.43a1.37 1.37 0 0 0-1.99 0 1.44 1.44 0 0 0 0 2.02l2.94 2.99h-9.76A10.76 10.76 0 0 1 2.81 51.86v-6.43c0-.79-.63-1.43-1.41-1.43z"/><path fill="#1d79b1" d="M0 1.42v31.16C0 33.37.61 34 1.38 34h30.24A1.4 1.4 0 0 0 33 32.58V1.42A1.4 1.4 0 0 0 31.62 0H1.38A1.4 1.4 0 0 0 0 1.42zM3 3h27v28H3z"/></svg>