<svg xmlns="http://www.w3.org/2000/svg" width="72" height="72" viewBox="0 0 72 72"><defs><clipPath id="a"><path fill="#fff" d="M1125 1369a18 18 0 1 1 36 0 18 18 0 0 1-36 0z"/></clipPath></defs><path fill="#27d1db" d="M0 36a36 36 0 1 1 72 0 36 36 0 0 1-72 0z"/><path fill="#fff" d="M46.04 30H26.65a.65.65 0 0 0-.65.64c0 .36.29.65.65.65h19.39c.36 0 .64-.29.64-.65a.64.64 0 0 0-.64-.64zM42.67 35H30.65a.65.65 0 0 0-.65.64c0 .36.29.65.65.65h12.02c.36 0 .65-.29.65-.65a.65.65 0 0 0-.65-.64zM42.67 39H30.65a.65.65 0 0 0-.65.64c0 .36.29.65.65.65h12.02c.36 0 .65-.29.65-.65a.65.65 0 0 0-.65-.64z"/><path fill="none" stroke="#fff" stroke-miterlimit="50" stroke-width="3" d="M1125 1369a18 18 0 1 1 36 0 18 18 0 0 1-36 0z" clip-path="url(&quot;#a&quot;)" transform="translate(-1107 -1334)"/></svg>