<svg xmlns="http://www.w3.org/2000/svg" width="72" height="72" viewBox="0 0 72 72"><path fill="#edc92f" d="M35.94 0a35.94 35.94 0 1 0 0 71.88 35.94 35.94 0 0 0 0-71.88z"/><path fill="#fff" d="M36.26 41.52a5.27 5.27 0 1 1 .01-10.53 5.27 5.27 0 0 1-.01 10.53zm0-9.12a3.86 3.86 0 1 0 0 7.72 3.86 3.86 0 0 0 0-7.72zM36.47 27.65a.7.7 0 0 0 .7-.71V19.4l1.57 1.56a.7.7 0 0 0 .5.21.7.7 0 0 0 .49-1.2l-2.77-2.77a.7.7 0 0 0-.99 0l-2.77 2.77a.7.7 0 0 0 0 .99.7.7 0 0 0 1 0l1.56-1.56v7.54c0 .4.32.71.71.71zM33.2 51.68l2.77 2.77a.7.7 0 0 0 .5.21c.18 0 .36-.07.49-.21l2.77-2.77a.72.72 0 0 0 0-1 .7.7 0 0 0-.99 0l-1.57 1.57v-7.54a.7.7 0 1 0-1.41 0v7.54l-1.56-1.57a.72.72 0 0 0-1 0 .72.72 0 0 0 0 1zM19.97 39.73a.7.7 0 0 0 .5.21c.18 0 .36-.07.49-.21a.69.69 0 0 0 0-.99l-1.56-1.57h7.54a.7.7 0 1 0 0-1.41H19.4l1.56-1.56a.7.7 0 0 0 0-1 .7.7 0 0 0-.99 0l-2.77 2.77a.7.7 0 0 0 0 .99zM44 36.47c0 .39.32.7.71.7h7.54l-1.57 1.57a.7.7 0 0 0 .5 1.2.7.7 0 0 0 .5-.21l2.77-2.77a.7.7 0 0 0 0-.99l-2.77-2.77a.72.72 0 0 0-1 0 .72.72 0 0 0 0 1l1.57 1.56h-7.54a.7.7 0 0 0-.71.71zM27.33 22.71a.71.71 0 0 0-.71-.71h-3.91a.71.71 0 0 0-.71.71v3.91c0 .39.32.71.71.71.38 0 .7-.32.7-.71V24.4l5.34 5.34c.14.14.31.21.49.21a.7.7 0 0 0 .5-1.2l-5.34-5.34h2.22c.39 0 .71-.32.71-.7zM42.21 43.2l5.33 5.33h-2.21a.7.7 0 1 0 0 1.41h3.91a.7.7 0 0 0 .71-.7v-3.92a.7.7 0 0 0-1.41 0v2.22L43.2 42.2a.7.7 0 0 0-.99 0 .7.7 0 0 0 0 1zM22.71 44.62a.7.7 0 0 0-.71.7v3.92c0 .39.32.7.71.7h3.91a.7.7 0 1 0 0-1.41H24.4l5.34-5.33a.72.72 0 0 0 0-1 .7.7 0 0 0-.99 0l-5.34 5.34v-2.22a.7.7 0 0 0-.7-.7zM42.21 29.74a.7.7 0 0 0 .5.21.7.7 0 0 0 .49-.21l5.34-5.34v2.22c0 .39.32.71.7.71.39 0 .71-.32.71-.71v-3.91a.71.71 0 0 0-.71-.71h-3.91a.71.71 0 0 0-.71.71c0 .38.32.7.71.7h2.21l-5.33 5.34a.69.69 0 0 0 0 .99z"/></svg>