<svg xmlns="http://www.w3.org/2000/svg" width="72" height="72" viewBox="0 0 72 72"><defs><clipPath id="a"><path fill="#fff" d="M295 1058.85c0-.47.38-.85.85-.85h19.3c.47 0 .85.38.85.85v27.3c0 .47-.38.85-.85.85h-19.3a.85.85 0 0 1-.85-.85z"/></clipPath><clipPath id="b"><path fill="#fff" d="M278 1058.85c0-.47.38-.85.85-.85h19.3c.47 0 .85.38.85.85v27.3c0 .47-.38.85-.85.85h-19.3a.85.85 0 0 1-.85-.85z"/></clipPath><clipPath id="c"><path fill="#fff" d="M285 1054.85c0-.47.38-.85.85-.85h22.3c.47 0 .85.38.85.85v31.3c0 .47-.38.85-.85.85h-22.3a.85.85 0 0 1-.85-.85z"/></clipPath><clipPath id="d"><path fill="#fff" d="M291 1065l10.18.21 2.59 9.48-10.41.24z"/></clipPath></defs><path fill="#ff5656" d="M36 0a36 36 0 1 0 0 72 36 36 0 0 0 0-72z"/><path fill="none" stroke="#fff" stroke-miterlimit="50" stroke-width="4" d="M295 1058.85c0-.47.38-.85.85-.85h19.3c.47 0 .85.38.85.85v27.3c0 .47-.38.85-.85.85h-19.3a.85.85 0 0 1-.85-.85z" clip-path="url(&quot;#a&quot;)" transform="translate(-261 -1035)"/><path fill="none" stroke="#fff" stroke-miterlimit="50" stroke-width="4" d="M278 1058.85c0-.47.38-.85.85-.85h19.3c.47 0 .85.38.85.85v27.3c0 .47-.38.85-.85.85h-19.3a.85.85 0 0 1-.85-.85z" clip-path="url(&quot;#b&quot;)" transform="translate(-261 -1035)"/><path fill="#ff5656" d="M24 19.85c0-.47.38-.85.85-.85h22.3c.47 0 .85.38.85.85v31.3c0 .47-.38.85-.85.85h-22.3a.85.85 0 0 1-.85-.85z"/><path fill="none" stroke="#fff" stroke-miterlimit="50" stroke-width="4" d="M285 1054.85c0-.47.38-.85.85-.85h22.3c.47 0 .85.38.85.85v31.3c0 .47-.38.85-.85.85h-22.3a.85.85 0 0 1-.85-.85z" clip-path="url(&quot;#c&quot;)" transform="translate(-261 -1035)"/><path fill="none" stroke="#fff" stroke-miterlimit="50" stroke-width="3.59" d="M291 1065l10.18.21 2.59 9.48-10.41.24z" clip-path="url(&quot;#d&quot;)" transform="translate(-261 -1035)"/></svg>