<svg xmlns="http://www.w3.org/2000/svg" width="72" height="72" viewBox="0 0 72 72"><path fill="#f29c1f" d="M0 36a36 36 0 1 1 72 0 36 36 0 0 1-72 0z"/><path fill="#fff" d="M22.57 36A4.64 4.64 0 0 0 18 40.71c0 2.6 2.05 4.72 4.57 4.72a4.65 4.65 0 0 0 4.57-4.72c0-2.6-2.05-4.71-4.57-4.71zm0 7.6a2.85 2.85 0 0 1-2.8-2.89 2.85 2.85 0 0 1 2.8-2.88c1.54 0 2.8 1.29 2.8 2.88 0 1.6-1.26 2.89-2.8 2.89zM51.57 28A4.64 4.64 0 0 0 47 32.71c0 2.6 2.05 4.72 4.57 4.72a4.65 4.65 0 0 0 4.57-4.72c0-2.6-2.05-4.71-4.57-4.71zm0 7.6a2.85 2.85 0 0 1-2.8-2.89 2.85 2.85 0 0 1 2.8-2.88c1.54 0 2.8 1.29 2.8 2.88 0 1.6-1.26 2.89-2.8 2.89z"/><path fill="none" stroke="#fff" stroke-linecap="square" stroke-miterlimit="50" stroke-width="1.67" d="M19 41.53s-.15 9.95 15.95 9.95C51.04 51.48 55.3 41 55.3 41M19 21s-.17 10.48 15.93 10.48C51.02 31.48 55.28 21 55.28 21"/></svg>