<svg xmlns="http://www.w3.org/2000/svg" width="36" height="42" viewBox="0 0 36 42"><path fill="#fff" d="M11.65 0a5.49 5.49 0 0 0-5.34 5.62 1 1 0 0 1-.96 1.01A5.5 5.5 0 0 0 0 12.24c0 1.06.72 3.05 1.32 3.59a7 7 0 0 1 4.03-1.28c4 0 7.26 3.42 7.26 7.63a.98.98 0 0 1-.96 1.01.98.98 0 0 1-.96-1.01 5.48 5.48 0 0 0-5.34-5.61A5.5 5.5 0 0 0 0 22.18a5.6 5.6 0 0 0 3.58 5.3 1 1 0 0 1 .59.64c.09.29.05.62-.11.88a5.77 5.77 0 0 0 1.02 7.44 5.77 5.77 0 0 1 5.36-4.22h.01c.53 0 .95.44.96.99.01.56-.41 1.02-.94 1.02a3.86 3.86 0 0 0-3.71 3.84A3.87 3.87 0 0 0 10.53 42c1.48 0 4.62-2.45 6.47-4.18V5.62A5.5 5.5 0 0 0 11.65 0zM30.65 16.57a5.48 5.48 0 0 0-5.34 5.61.98.98 0 0 1-.96 1.01.98.98 0 0 1-.96-1.01c0-4.21 3.26-7.63 7.26-7.63a7 7 0 0 1 4.03 1.28c.6-.54 1.32-2.52 1.32-3.59a5.5 5.5 0 0 0-5.35-5.61 1 1 0 0 1-.96-1.01c0-3.1-2.39-5.62-5.34-5.62A5.5 5.5 0 0 0 19 5.62v32.2c1.85 1.73 4.99 4.18 6.47 4.18 2.05 0 3.8-1.78 3.77-3.93a3.86 3.86 0 0 0-3.71-3.84c-.53 0-.95-.46-.94-1.02a.98.98 0 0 1 .96-.99h.01a5.77 5.77 0 0 1 5.36 4.22A5.79 5.79 0 0 0 31.94 29c-.16-.26-.2-.59-.11-.88a1 1 0 0 1 .59-.64 5.6 5.6 0 0 0 3.58-5.3 5.5 5.5 0 0 0-5.35-5.61z"/></svg>