<svg xmlns="http://www.w3.org/2000/svg" width="28" height="47" viewBox="0 0 28 47"><path fill="#fff" d="M23.26 27.23c.49-2.24.74-4.61.74-7.05 0-5.28-1.19-10.26-3.34-14.03C18.4 2.18 15.32 0 12 0 8.68 0 5.6 2.18 3.34 6.15 1.19 9.92 0 14.9 0 20.18c0 2.45.25 4.81.74 7.06l-.16.17a1.8 1.8 0 0 0 .01 2.45c.32.33.74.5 1.16.5.42 0 .85-.17 1.17-.51l4.14-4.41v1.9l-2.23 9.6c-.11.45-.01.92.26 1.28.23.31.56.51.92.56l-2.65 2.7c-.82.83-.84 2.2-.05 3.06a1.99 1.99 0 0 0 2.9.05l4.35-4.41c.36-.37.57-.86.61-1.38h1.66v6.04c0 1.19.92 2.16 2.05 2.16 1.14 0 2.06-.97 2.06-2.16V38.8h.85c.44 0 .85-.21 1.12-.58.27-.36.37-.83.26-1.28l-2.23-9.6v-1.91l4.15 4.42c.32.34.75.51 1.17.51.42 0 .84-.17 1.16-.5a1.8 1.8 0 0 0 .01-2.45zM3 20.99c0-4.92 1.05-9.52 2.96-12.96C7.75 4.79 10.08 3 12.5 3s4.75 1.79 6.54 5.03C20.95 11.47 22 16.07 22 20.99c0 1.72-.13 3.39-.38 5L16.16 20c-.26-.28-.58-.39-.9-.5-.5-.16-5.03-.17-5.52 0-.32.11-.64.23-.89.5l-5.47 6A32.7 32.7 0 0 1 3 20.99z"/><path fill="#fff" d="M16.84 15.05a3.75 3.75 0 0 0 6.32 0 .6.6 0 0 0 .27.2c.06.02.13.03.2.03a.6.6 0 0 0 .43-.19c.03.1.07.2.12.29.36.7 2 .54 3.04 2.43.06.13.2.2.34.19a.34.34 0 0 0 .3-.24c.48-1.34-.39-3.08-.99-3.87-.53-.68-1.33-1.05-2.07-.64l-.08.05.01-.02a.62.62 0 0 0-.36-.78.6.6 0 0 0-.59.12A3.84 3.84 0 0 0 20 9c-2 0-3.64 1.6-3.78 3.62a.6.6 0 0 0-.59-.12.62.62 0 0 0-.36.78l.01.02-.08-.05c-.74-.41-1.54-.04-2.07.64-.6.79-1.47 2.53-.99 3.87.04.13.16.23.3.24.14.01.28-.06.34-.19 1.04-1.89 2.68-1.73 3.04-2.43.05-.09.09-.19.12-.29a.6.6 0 0 0 .43.19c.07 0 .14-.01.2-.03a.6.6 0 0 0 .27-.2z"/></svg>