<svg xmlns="http://www.w3.org/2000/svg" width="45" height="45" viewBox="0 0 45 45"><path fill="#fff" d="M11.5 18a4.5 4.5 0 1 0 .01-8.99A4.5 4.5 0 0 0 11.5 18zM15.06 37.61H6.44L2.85 21.72a.94.94 0 0 0-1.12-.7c-.5.11-.82.6-.71 1.1l3.73 16.52v5.44c0 .51.42.92.94.92.51 0 .93-.41.93-.92v-4.62h5.63v4.62c0 .51.42.92.94.92.51 0 .93-.41.93-.92v-4.62h.94c.52 0 .94-.41.94-.92a.94.94 0 0 0-.94-.93zM35 0c-5.51 0-10 4.71-10 10.5S29.49 21 35 21s10-4.71 10-10.5S40.51 0 35 0zm5 12h-4a1 1 0 0 1-1-1V5a1 1 0 0 1 1-1 1 1 0 0 1 1 1v5h3a1 1 0 0 1 1 1 1 1 0 0 1-1 1z"/><path fill="#fff" d="M20.33 30.14h-6.22v-7.43A3.64 3.64 0 0 0 10.56 19 3.64 3.64 0 0 0 7 22.71v10.22c0 1.53 1.2 2.78 2.67 2.78h8v6.5A2.73 2.73 0 0 0 20.33 45 2.74 2.74 0 0 0 23 42.21v-9.28c0-1.54-1.2-2.79-2.67-2.79z"/></svg>