<svg xmlns="http://www.w3.org/2000/svg" width="38" height="33" viewBox="0 0 38 33"><defs><clipPath id="a"><path fill="#fff" d="M578 646.85c0-.47.38-.85.85-.85h19.3c.47 0 .85.38.85.85v27.3c0 .47-.38.85-.85.85h-19.3a.85.85 0 0 1-.85-.85z"/></clipPath><clipPath id="b"><path fill="#fff" d="M561 646.85c0-.47.38-.85.85-.85h19.3c.47 0 .85.38.85.85v27.3c0 .47-.38.85-.85.85h-19.3a.85.85 0 0 1-.85-.85z"/></clipPath><clipPath id="c"><path fill="#fff" d="M568 642.85c0-.47.38-.85.85-.85h22.3c.47 0 .85.38.85.85v31.3c0 .47-.38.85-.85.85h-22.3a.85.85 0 0 1-.85-.85z"/></clipPath><clipPath id="d"><path fill="#fff" d="M574 653l10.18.21 2.59 9.48-10.41.24z"/></clipPath></defs><path fill="none" stroke="#fff" stroke-miterlimit="50" stroke-width="4" d="M578 646.85c0-.47.38-.85.85-.85h19.3c.47 0 .85.38.85.85v27.3c0 .47-.38.85-.85.85h-19.3a.85.85 0 0 1-.85-.85z" clip-path="url(&quot;#a&quot;)" transform="translate(-561 -642)"/><path fill="none" stroke="#fff" stroke-miterlimit="50" stroke-width="4" d="M561 646.85c0-.47.38-.85.85-.85h19.3c.47 0 .85.38.85.85v27.3c0 .47-.38.85-.85.85h-19.3a.85.85 0 0 1-.85-.85z" clip-path="url(&quot;#b&quot;)" transform="translate(-561 -642)"/><path fill="#ff5656" d="M7 .85c0-.47.38-.85.85-.85h22.3c.47 0 .85.38.85.85v31.3c0 .47-.38.85-.85.85H7.85a.85.85 0 0 1-.85-.85z"/><path fill="none" stroke="#fff" stroke-miterlimit="50" stroke-width="4" d="M568 642.85c0-.47.38-.85.85-.85h22.3c.47 0 .85.38.85.85v31.3c0 .47-.38.85-.85.85h-22.3a.85.85 0 0 1-.85-.85z" clip-path="url(&quot;#c&quot;)" transform="translate(-561 -642)"/><path fill="none" stroke="#fff" stroke-miterlimit="50" stroke-width="3.59" d="M574 653l10.18.21 2.59 9.48-10.41.24z" clip-path="url(&quot;#d&quot;)" transform="translate(-561 -642)"/></svg>