<svg xmlns="http://www.w3.org/2000/svg" width="10" height="16" viewBox="0 0 10 16"><path fill="#fff" d="M3.76 10.83a5.98 5.98 0 0 1-3.43-1.3c-.39-.35-.43-.76-.12-1.17.26-.36.71-.46 1.17-.25l.26.14a5.37 5.37 0 0 0 5.65.05c.16-.12.34-.22.55-.27.4-.1.77.04.98.37.25.38.25.75-.06 1.04-.46.45-1.02.77-1.64 1a8.2 8.2 0 0 1-1.86.39l.2.2 2.59 2.45c.29.28.35.62.19.95-.17.35-.57.59-.96.56a.93.93 0 0 1-.6-.29c-.65-.62-1.32-1.22-1.96-1.85-.18-.18-.27-.15-.44.01-.65.63-1.32 1.26-1.99 1.88a.86.86 0 0 1-1 .17c-.37-.17-.61-.53-.59-.88.01-.24.14-.43.31-.6l2.56-2.41.19-.19z"/><path fill="#fff" d="M4.47 8a3.5 3.5 0 0 1 .05-7 3.5 3.5 0 1 1-.05 7zM6 4.5C6 3.66 5.33 3 4.5 3c-.84 0-1.51.67-1.5 1.51A1.5 1.5 0 0 0 4.51 6C5.34 6 6 5.33 6 4.5z"/></svg>