<svg xmlns="http://www.w3.org/2000/svg" width="39" height="39" viewBox="0 0 39 39"><path fill="#fff" d="M20.26 25.52a5.27 5.27 0 1 1 .01-10.53 5.27 5.27 0 0 1-.01 10.53zm0-9.12a3.86 3.86 0 1 0 0 7.72 3.86 3.86 0 0 0 0-7.72zM20.47 11.65a.7.7 0 0 0 .7-.71V3.4l1.57 1.56a.7.7 0 0 0 .5.21.7.7 0 0 0 .49-1.2L20.96 1.2a.7.7 0 0 0-.99 0L17.2 3.97a.7.7 0 0 0 0 .99.7.7 0 0 0 1 0l1.56-1.56v7.54c0 .4.32.71.71.71zM17.2 35.68l2.77 2.77a.7.7 0 0 0 .5.21c.18 0 .36-.07.49-.21l2.77-2.77a.72.72 0 0 0 0-1 .7.7 0 0 0-.99 0l-1.57 1.57v-7.54a.7.7 0 1 0-1.41 0v7.54l-1.56-1.57a.72.72 0 0 0-1 0 .72.72 0 0 0 0 1zM3.97 23.73a.7.7 0 0 0 .5.21c.18 0 .36-.07.49-.21a.69.69 0 0 0 0-.99L3.4 21.17h7.54a.7.7 0 1 0 0-1.41H3.4l1.56-1.56a.7.7 0 0 0 0-1 .7.7 0 0 0-.99 0L1.2 19.97a.7.7 0 0 0 0 .99zM28 20.47c0 .39.32.7.71.7h7.54l-1.57 1.57a.7.7 0 0 0 .5 1.2.7.7 0 0 0 .5-.21l2.77-2.77a.7.7 0 0 0 0-.99l-2.77-2.77a.72.72 0 0 0-1 0 .72.72 0 0 0 0 1l1.57 1.56h-7.54a.7.7 0 0 0-.71.71zM11.33 6.71a.71.71 0 0 0-.71-.71H6.71a.71.71 0 0 0-.71.71v3.91c0 .39.32.71.71.71.38 0 .7-.32.7-.71V8.4l5.34 5.34c.14.14.31.21.49.21a.7.7 0 0 0 .5-1.2L8.4 7.41h2.22c.39 0 .71-.32.71-.7zM26.21 27.2l5.33 5.33h-2.21a.7.7 0 1 0 0 1.41h3.91a.7.7 0 0 0 .71-.7v-3.92a.7.7 0 0 0-1.41 0v2.22L27.2 26.2a.7.7 0 0 0-.99 0 .7.7 0 0 0 0 1zM6.71 28.62a.7.7 0 0 0-.71.7v3.92c0 .39.32.7.71.7h3.91a.7.7 0 1 0 0-1.41H8.4l5.34-5.33a.72.72 0 0 0 0-1 .7.7 0 0 0-.99 0l-5.34 5.34v-2.22a.7.7 0 0 0-.7-.7zM26.21 13.74a.7.7 0 0 0 .5.21.7.7 0 0 0 .49-.21l5.34-5.34v2.22c0 .39.32.71.7.71.39 0 .71-.32.71-.71V6.71a.71.71 0 0 0-.71-.71h-3.91a.71.71 0 0 0-.71.71c0 .38.32.7.71.7h2.21l-5.33 5.34a.69.69 0 0 0 0 .99z"/></svg>