<svg xmlns="http://www.w3.org/2000/svg" width="50" height="51" viewBox="0 0 50 51"><path fill="#ff5656" d="M25.05 41a15.02 15.02 0 0 0 13.87-9.39c.32-.8-.32-1.17-1.65-1.31l-.26.67a12.96 12.96 0 0 1-12 8.03 12.97 12.97 0 0 1-12.38-9c-1.37.04-1.94.43-1.46 1.61A15 15 0 0 0 25.05 41zm-.68-10.33c-5.26.12-9.53-.72-11.74-.66a13 13 0 0 1 24.38-8.98 12.96 12.96 0 0 1 .26 9.27c-2.48-.27-7.35.25-12.9.37z"/><path fill="#1d79b1" d="M1.45 34.33c.15.41.54.67.94.67a1.01 1.01 0 0 0 .94-1.35A22.88 22.88 0 0 1 8.47 9.91a22.5 22.5 0 0 1 15.98-6.89 22.5 22.5 0 0 1 16.13 6.51l-2.55.03a1 1 0 0 0-.99 1.01 1 1 0 0 0 1 1h.01l4.96-.06c.26 0 .52-.11.71-.31.18-.19.28-.44.28-.71l-.06-5a.98.98 0 0 0-1.01-.99 1 1 0 0 0-.99 1.01l.03 2.57A24.47 24.47 0 0 0 24.43 1 24.8 24.8 0 0 0 .53 20.79c-.94 4.53-.62 9.2.92 13.54zM41.53 41.83a22.16 22.16 0 0 1-32.11.4l2.55-.04c.56-.01.99-.47.99-1.04a1.02 1.02 0 0 0-1-1.03h-.01l-4.96.06c-.56.01-.99.47-.99 1.05l.06 5.15c.01.57.45 1.03 1 1.03h.01c.55-.01.99-.47.99-1.05l-.03-2.65A24.16 24.16 0 0 0 25.29 51a24.2 24.2 0 0 0 17.67-7.71c3.3-3.5 5.56-7.89 6.51-12.67.94-4.65.62-9.47-.92-13.93a1 1 0 0 0-1.28-.63c-.52.19-.79.78-.61 1.33 2.97 8.55 1 17.92-5.13 24.44z"/><path fill="#fff" d="M25 39.19a13 13 0 0 0 13-13c0-3.2.6-5.31-2.17-9.09-2.18-2.98-6.85-3.91-10.83-3.91-2.26 0-5.45-1-8.86 1.6-3.4 2.61-2.01 3.67-3.15 6.41A13 13 0 0 0 25 39.19z"/><path fill="#ff5656" d="M16 21a2 2 0 1 1 4 0 2 2 0 0 1-4 0zM28 21a2 2 0 1 1 4 0 2 2 0 0 1-4 0z"/></svg>