<svg xmlns="http://www.w3.org/2000/svg" width="43" height="51" viewBox="0 0 43 51"><path fill="#1d79b1" d="M15.75 28.13v-8.06c0-.35-.17-.67-.46-.86a2.73 2.73 0 0 1-1.23-2.28V8.56a6.52 6.52 0 0 1 6.53-6.49h1.82c3.6 0 6.53 2.92 6.53 6.49v8.37c0 .92-.46 1.77-1.23 2.28a1 1 0 0 0-.46.86v8.06c0 .54.3 1.02.79 1.26 1.06.52 6.64 3.32 11.77 7.51a2.98 2.98 0 0 1 1.11 2.33v5.73c0 .58.46 1.04 1.04 1.04.58 0 1.04-.46 1.04-1.04v-5.73a5.1 5.1 0 0 0-1.86-3.93 68.95 68.95 0 0 0-11.81-7.58v-7.14a4.79 4.79 0 0 0 1.69-3.65V8.56A8.6 8.6 0 0 0 22.41 0h-1.82a8.6 8.6 0 0 0-8.61 8.56v8.37c0 1.41.62 2.74 1.69 3.65v7.14A68.95 68.95 0 0 0 1.86 35.3 5.02 5.02 0 0 0 0 39.23v5.73C0 45.54.46 46 1.04 46c.58 0 1.04-.46 1.04-1.04v-5.73c0-.91.4-1.75 1.11-2.33a66.6 66.6 0 0 1 11.77-7.51c.49-.24.79-.72.79-1.26z"/><path fill="#ff5656" d="M27.19 39.31l-9 9.1-3.38-3.42a1.05 1.05 0 0 0-1.5 0 1.1 1.1 0 0 0 0 1.52l4.13 4.18c.2.2.48.31.75.31s.55-.11.75-.31l9.75-9.86a1.1 1.1 0 0 0 0-1.52 1.07 1.07 0 0 0-1.5 0z"/></svg>