<svg xmlns="http://www.w3.org/2000/svg" width="49" height="46" viewBox="0 0 49 46"><path fill="#1d79b1" d="M44.23 11H33.94c-.59 0-1.06.47-1.06 1.07 0 .59.47 1.06 1.06 1.06h10.29c1.16 0 2.11.95 2.11 2.12v26.5c0 1.17-.95 2.12-2.11 2.12H4.24a2.12 2.12 0 0 1-2.11-2.12v-26.5c0-1.17.95-2.12 2.11-2.12h10.45a1.06 1.06 0 1 0 0-2.13H4.24A4.25 4.25 0 0 0 0 15.25v26.5C0 44.09 1.9 46 4.24 46H44.22a4.25 4.25 0 0 0 4.24-4.25v-26.5A4.24 4.24 0 0 0 44.23 11z"/><path fill="#ff5656" d="M31 4.61A4.58 4.58 0 0 0 26.47 0h-3.94A4.58 4.58 0 0 0 18 4.61v2.76l.02.2-.02.21v22.9c0 .26.08.51.23.71l5.34 7.15c.23.29.56.46.92.46s.7-.17.92-.46l5.35-7.15c.15-.2.23-.45.23-.71V7.74l-.02-.19.02-.19V4.61zM20.32 8.55h3.03v20.79h-3.03zm4.19 27.34l-3.16-4.22h6.31zm4.19-6.55h-3.04V8.55h3.04zM20.32 6.2V4.61c0-1.24 1-2.26 2.22-2.26h3.94a2.25 2.25 0 0 1 2.23 2.26V6.2z"/></svg>