<svg xmlns="http://www.w3.org/2000/svg" width="47" height="52" viewBox="0 0 47 52"><path fill="#1d79b1" d="M44.73 18.79A2.27 2.27 0 0 0 47 16.52v-2.06a2.28 2.28 0 0 0-2.27-2.28h-1.07a12.28 12.28 0 0 0-1.23-2.95l.75-.75c.89-.89.89-2.32 0-3.21l-1.46-1.46c-.43-.44-1-.67-1.61-.67-.6 0-1.17.23-1.6.67l-.75.75c-.93-.53-1.92-.94-2.95-1.23V2.27A2.28 2.28 0 0 0 32.53 0h-2.06a2.28 2.28 0 0 0-2.28 2.27v1.07c-1.03.28-2.02.69-2.95 1.23l-.75-.75c-.43-.44-1-.67-1.6-.67-.61 0-1.18.23-1.61.67l-1.46 1.46a2.26 2.26 0 0 0 0 3.21l.75.75c-.53.93-.94 1.92-1.23 2.95h-1.07A2.28 2.28 0 0 0 16 14.47v2.06a2.28 2.28 0 0 0 2.27 2.28h1.07c.28 1.03.69 2.02 1.23 2.95l-.75.75a2.26 2.26 0 0 0 0 3.21l1.46 1.46c.43.44 1 .67 1.61.67.6 0 1.17-.23 1.6-.67l.75-.75c.93.53 1.92.94 2.95 1.23v1.07A2.28 2.28 0 0 0 30.47 31h2.06a2.28 2.28 0 0 0 2.28-2.27v-1.07c1.03-.28 2.02-.69 2.95-1.23l.75.75c.43.44 1 .67 1.6.67.61 0 1.18-.23 1.61-.67l1.46-1.46c.89-.89.89-2.32 0-3.21l-.75-.75c.53-.93.94-1.92 1.23-2.95h1.07zm-2.92-1.24c-.27 1.35-.8 2.62-1.57 3.77-.27.41-.22.98.13 1.32l1.34 1.35c.08.07.08.18 0 .25l-1.46 1.45a.17.17 0 0 1-.12.05.18.18 0 0 1-.13-.05l-1.34-1.34a1.05 1.05 0 0 0-1.33-.13 10.6 10.6 0 0 1-3.77 1.57c-.49.09-.85.52-.85 1.02v1.89c0 .1-.08.18-.18.18h-2.06a.18.18 0 0 1-.18-.18v-1.89c0-.5-.35-.93-.85-1.02-1.35-.27-2.62-.8-3.77-1.57a1.04 1.04 0 0 0-1.33.13l-1.32 1.34a.17.17 0 0 1-.12.05.18.18 0 0 1-.13-.05l-1.46-1.46a.18.18 0 0 1 0-.25l1.34-1.35c.35-.35.42-.91.13-1.32a10.6 10.6 0 0 1-1.57-3.77 1.04 1.04 0 0 0-1.02-.85H18.3a.18.18 0 0 1-.18-.18v-2.06c0-.1.08-.18.18-.18h1.89c.5 0 .93-.35 1.02-.85.27-1.35.8-2.62 1.57-3.77.27-.42.22-.98-.13-1.33l-1.34-1.34a.18.18 0 0 1 0-.25l1.46-1.46a.16.16 0 0 1 .13-.06c.03 0 .08.01.12.06l1.35 1.34c.35.35.91.41 1.32.13a10.6 10.6 0 0 1 3.77-1.57c.49-.09.85-.53.85-1.02V2.27c0-.09.08-.18.18-.18h2.06c.1 0 .18.09.18.18v1.9c0 .49.35.93.85 1.02 1.35.27 2.62.8 3.77 1.57.42.27.98.22 1.33-.13l1.34-1.34a.18.18 0 0 1 .13-.05c.03 0 .08.01.12.05l1.46 1.46c.08.07.08.18 0 .25l-1.36 1.34c-.35.35-.41.91-.13 1.33a10.6 10.6 0 0 1 1.57 3.77c.09.49.53.85 1.02.85h1.9c.09 0 .18.08.18.18v2.06c0 .1-.09.18-.18.18h-1.9c-.49-.01-.93.34-1.02.84z"/><path fill="#ff5656" d="M31.5 9a6.51 6.51 0 0 0-6.5 6.5c0 3.58 2.92 6.5 6.5 6.5s6.5-2.92 6.5-6.5S35.08 9 31.5 9zm0 10.94a4.44 4.44 0 1 1 0-8.89 4.44 4.44 0 0 1 0 8.89z"/><path fill="#1d79b1" d="M9.35 47.94l3.55-.52v3.54c0 .58.47 1.04 1.05 1.04h19.49c.58 0 1.04-.46 1.04-1.04V37.94a17.13 17.13 0 0 0 4.47-7.04 1.04 1.04 0 0 0-.67-1.31 1.07 1.07 0 0 0-1.33.66 15.25 15.25 0 0 1-4.22 6.47c-.22.2-.34.48-.34.77v12.42H15v-3.7c0-.3-.13-.58-.36-.78-.23-.2-.54-.29-.83-.25l-4.68.7a2.4 2.4 0 0 1-2.34-2.39v-6.03c0-.58-.47-1.04-1.05-1.04H4.16c-.49 0-.86-.14-1-.36-.13-.22-.08-.61.15-1.04l3.35-6.34a1 1 0 0 0 .12-.48v-2.71A15.3 15.3 0 0 1 17.3 11.02c.55-.18.84-.77.66-1.32a1.07 1.07 0 0 0-1.34-.65c-.61.21-1.21.45-1.79.73A17.37 17.37 0 0 0 4.7 25.48v2.46l-3.24 6.11c-.59 1.09-.61 2.21-.09 3.07.53.86 1.55 1.35 2.79 1.35h.53v5a4.49 4.49 0 0 0 4.52 4.46c.04.02.09.01.14.01z"/></svg>