<svg xmlns="http://www.w3.org/2000/svg" width="42" height="52" viewBox="0 0 42 52"><path fill="#1d79b1" d="M1.05 45c.59 0 1.06-.47 1.06-1.05v-5.6c0-.88.38-1.69 1.06-2.24 5-4.1 10.43-6.83 11.47-7.33.48-.24.79-.72.79-1.27v-7.88c0-.35-.18-.68-.46-.87a2.6 2.6 0 0 1-1.19-2.19V8.41a6.34 6.34 0 0 1 6.34-6.31h1.76a6.34 6.34 0 0 1 6.34 6.31v8.16c0 .88-.45 1.7-1.19 2.19-.29.19-.46.52-.46.87v7.88c0 .54.31 1.03.79 1.27 1.04.51 6.47 3.23 11.47 7.33a2.88 2.88 0 0 1 1.06 2.24v5.6c0 .58.47 1.05 1.06 1.05.58 0 1.05-.47 1.05-1.05v-5.6c0-1.5-.67-2.91-1.83-3.87a65.56 65.56 0 0 0-11.5-7.4v-6.93a4.67 4.67 0 0 0 1.65-3.58V8.41A8.44 8.44 0 0 0 21.88 0h-1.76a8.44 8.44 0 0 0-8.44 8.41v8.16c0 1.39.6 2.69 1.65 3.58v6.93a65.94 65.94 0 0 0-11.5 7.4A5.01 5.01 0 0 0 0 38.35v5.6C0 44.53.48 45 1.05 45z"/><path fill="#ff5656" d="M30 41.25A5.21 5.21 0 0 0 24.76 36c-1.39 0-2.71.55-3.7 1.54l-.07.06-.06-.06a5.17 5.17 0 0 0-7.4 0 5.24 5.24 0 0 0 0 7.42l6.71 6.72.01.01c.21.2.47.31.74.31.28 0 .54-.11.75-.31l6.72-6.73c1-.99 1.54-2.31 1.54-3.71zm-3.02 2.23l-5.97 5.99-5.99-6.01a3.08 3.08 0 0 1-.92-2.22 3.12 3.12 0 0 1 3.13-3.15c.83 0 1.63.33 2.22.92l.8.81c.42.41 1.07.41 1.49 0l.8-.81a3.14 3.14 0 0 1 5.35 2.23c.01.85-.31 1.64-.91 2.24z"/></svg>