<svg xmlns="http://www.w3.org/2000/svg" width="38" height="39" viewBox="0 0 38 39"><path fill="#fff" d="M6.81 18.72a2.84 2.84 0 0 0 2.81-2.86A2.84 2.84 0 0 0 6.81 13 2.84 2.84 0 0 0 4 15.86a2.84 2.84 0 0 0 2.81 2.86zm0-4.08c.66 0 1.19.55 1.19 1.22a1.2 1.2 0 0 1-1.19 1.21 1.21 1.21 0 1 1 0-2.43zM30.81 18.72a2.84 2.84 0 0 0 2.81-2.86A2.84 2.84 0 0 0 30.81 13 2.84 2.84 0 0 0 28 15.86a2.84 2.84 0 0 0 2.81 2.86zm0-4.08c.66 0 1.19.55 1.19 1.22a1.2 1.2 0 0 1-1.19 1.21 1.21 1.21 0 1 1 0-2.43zM18.81 33A2.84 2.84 0 0 0 16 35.86a2.84 2.84 0 0 0 2.81 2.86 2.84 2.84 0 0 0 2.81-2.86A2.84 2.84 0 0 0 18.81 33zm0 4.07a1.21 1.21 0 1 1 0-2.43c.66 0 1.19.55 1.19 1.22a1.2 1.2 0 0 1-1.19 1.21z"/><path fill="#fff" d="M33.43 27.74c-1 0-1.93.34-2.68.9L19.6 20.81V9.12a4.6 4.6 0 0 0 3.71-4.52c0-2.54-2.03-4.6-4.52-4.6a4.56 4.56 0 0 0-4.52 4.6 4.6 4.6 0 0 0 3.71 4.52v11.69l-10.97 7.7a4.45 4.45 0 0 0-2.49-.77A4.56 4.56 0 0 0 0 32.34a4.56 4.56 0 0 0 4.52 4.59 4.55 4.55 0 0 0 4.51-4.59 4.6 4.6 0 0 0-.84-2.66l10.6-7.44 10.85 7.61a4.6 4.6 0 0 0-.72 2.49 4.55 4.55 0 0 0 4.51 4.59 4.56 4.56 0 0 0 4.52-4.59c0-2.54-2.03-4.6-4.52-4.6zM15.89 4.6c0-1.63 1.3-2.96 2.9-2.96 1.6 0 2.9 1.33 2.9 2.96 0 1.62-1.3 2.95-2.9 2.95-1.6 0-2.9-1.33-2.9-2.95zM4.52 35.29a2.94 2.94 0 0 1-2.91-2.95 2.94 2.94 0 0 1 2.91-2.96c1.59 0 2.9 1.33 2.9 2.96a2.94 2.94 0 0 1-2.9 2.95zm28.91 0c-1.6 0-2.9-1.33-2.9-2.95 0-1.63 1.3-2.96 2.9-2.96 1.6 0 2.9 1.33 2.9 2.96 0 1.62-1.3 2.95-2.9 2.95z"/></svg>