<svg xmlns="http://www.w3.org/2000/svg" width="65" height="58" viewBox="0 0 65 58"><defs><clipPath id="a"><path fill="#fff" d="M716 1055.47c0-.81.66-1.47 1.47-1.47h33.06c.81 0 1.47.66 1.47 1.47v47.06c0 .81-.66 1.47-1.47 1.47h-33.06c-.81 0-1.47-.66-1.47-1.47z"/></clipPath><clipPath id="b"><path fill="#fff" d="M687 1055.47c0-.81.66-1.47 1.47-1.47h33.06c.81 0 1.47.66 1.47 1.47v47.06c0 .81-.66 1.47-1.47 1.47h-33.06c-.81 0-1.47-.66-1.47-1.47z"/></clipPath><clipPath id="c"><path fill="#fff" d="M699 1048.47c0-.81.66-1.47 1.47-1.47h39.06c.81 0 1.47.66 1.47 1.47v55.06c0 .81-.66 1.47-1.47 1.47h-39.06c-.81 0-1.47-.66-1.47-1.47z"/></clipPath><clipPath id="d"><path fill="#fff" d="M709 1067l17.56.37 4.47 16.48-17.96.41z"/></clipPath></defs><path fill="none" stroke="#fff" stroke-miterlimit="50" stroke-width="6.91" d="M716 1055.47c0-.81.66-1.47 1.47-1.47h33.06c.81 0 1.47.66 1.47 1.47v47.06c0 .81-.66 1.47-1.47 1.47h-33.06c-.81 0-1.47-.66-1.47-1.47z" clip-path="url(&quot;#a&quot;)" transform="translate(-687 -1047)"/><path fill="none" stroke="#fff" stroke-miterlimit="50" stroke-width="6.91" d="M687 1055.47c0-.81.66-1.47 1.47-1.47h33.06c.81 0 1.47.66 1.47 1.47v47.06c0 .81-.66 1.47-1.47 1.47h-33.06c-.81 0-1.47-.66-1.47-1.47z" clip-path="url(&quot;#b&quot;)" transform="translate(-687 -1047)"/><path fill="#ff5656" d="M12 1.47C12 .66 12.66 0 13.47 0h39.06C53.34 0 54 .66 54 1.47v55.06c0 .81-.66 1.47-1.47 1.47H13.47c-.81 0-1.47-.66-1.47-1.47z"/><path fill="none" stroke="#fff" stroke-miterlimit="50" stroke-width="6.91" d="M699 1048.47c0-.81.66-1.47 1.47-1.47h39.06c.81 0 1.47.66 1.47 1.47v55.06c0 .81-.66 1.47-1.47 1.47h-39.06c-.81 0-1.47-.66-1.47-1.47z" clip-path="url(&quot;#c&quot;)" transform="translate(-687 -1047)"/><path fill="none" stroke="#fff" stroke-miterlimit="50" stroke-width="6.2" d="M709 1067l17.56.37 4.47 16.48-17.96.41z" clip-path="url(&quot;#d&quot;)" transform="translate(-687 -1047)"/></svg>