<svg xmlns="http://www.w3.org/2000/svg" width="55" height="57" viewBox="0 0 55 57"><path fill="#fff" d="M10.03 27.23a4.08 4.08 0 0 0 4.04-4.11A4.08 4.08 0 0 0 10.03 19 4.08 4.08 0 0 0 6 23.12a4.07 4.07 0 0 0 4.03 4.11zm0-5.86c.95 0 1.72.78 1.72 1.75 0 .96-.77 1.75-1.72 1.75-.94 0-1.71-.79-1.71-1.75 0-.97.77-1.75 1.71-1.75zM44.03 27.23a4.08 4.08 0 0 0 4.04-4.11A4.08 4.08 0 0 0 44.03 19 4.08 4.08 0 0 0 40 23.12a4.07 4.07 0 0 0 4.03 4.11zm0-5.86c.95 0 1.72.78 1.72 1.75 0 .96-.77 1.75-1.72 1.75-.94 0-1.71-.79-1.71-1.75 0-.97.77-1.75 1.71-1.75zM27.03 48A4.08 4.08 0 0 0 23 52.12a4.07 4.07 0 0 0 4.03 4.11 4.08 4.08 0 0 0 4.04-4.11A4.08 4.08 0 0 0 27.03 48zm0 5.87c-.94 0-1.71-.79-1.71-1.75 0-.97.77-1.75 1.71-1.75.95 0 1.72.78 1.72 1.75 0 .96-.77 1.75-1.72 1.75z"/><path fill="#fff" d="M48.01 39.96a6.4 6.4 0 0 0-3.85 1.29L28.14 29.97V13.13a6.6 6.6 0 0 0 5.33-6.51A6.56 6.56 0 0 0 26.98 0a6.56 6.56 0 0 0-6.48 6.62 6.6 6.6 0 0 0 5.32 6.51v16.84L10.07 41.06a6.42 6.42 0 0 0-3.59-1.1A6.56 6.56 0 0 0 0 46.58a6.55 6.55 0 0 0 6.48 6.61 6.55 6.55 0 0 0 6.49-6.61c0-1.43-.45-2.75-1.2-3.84l15.21-10.71L42.56 43a6.61 6.61 0 0 0-1.04 3.58 6.55 6.55 0 0 0 6.49 6.61 6.55 6.55 0 0 0 6.48-6.61 6.56 6.56 0 0 0-6.48-6.62zM22.82 6.62a4.2 4.2 0 0 1 4.16-4.25c2.3 0 4.17 1.9 4.17 4.25a4.22 4.22 0 0 1-4.17 4.25 4.22 4.22 0 0 1-4.16-4.25zM6.48 50.83a4.22 4.22 0 0 1-4.16-4.25 4.22 4.22 0 0 1 4.16-4.26c2.3 0 4.17 1.91 4.17 4.26a4.22 4.22 0 0 1-4.17 4.25zm41.53 0a4.22 4.22 0 0 1-4.17-4.25 4.22 4.22 0 0 1 4.17-4.26 4.22 4.22 0 0 1 4.16 4.26 4.22 4.22 0 0 1-4.16 4.25z"/></svg>