<svg xmlns="http://www.w3.org/2000/svg" width="40" height="35" viewBox="0 0 40 35"><path fill="#fff" d="M13.71 10.14c-.45.38-.71.93-.71 1.52v1.62c0 .45.36.81.81.81a.8.8 0 0 0 .81-.81v-1.62c0-.1.04-.2.12-.27a17.66 17.66 0 0 1 3.21-2.06.9.9 0 0 0 .51-.82V6.22a.82.82 0 0 0-.36-.67.26.26 0 0 1-.11-.21V2.95c0-.73.59-1.33 1.32-1.33h.51c.72 0 1.32.59 1.32 1.33v2.37c0 .08-.04.16-.12.21a.8.8 0 0 0-.35.67v2.29c0 .35.19.67.51.83.29.14 1.8.91 3.2 2.07.07.06.12.15.12.26v1.62c0 .45.36.81.81.81a.8.8 0 0 0 .81-.81v-1.62c0-.59-.26-1.14-.71-1.52a19.48 19.48 0 0 0-3.13-2.06v-1.5c.3-.34.48-.78.48-1.25V2.95A2.95 2.95 0 0 0 19.82 0h-.51a2.95 2.95 0 0 0-2.94 2.95v2.37c0 .47.17.91.47 1.25v1.5c-.66.35-1.93 1.08-3.13 2.07zM38.91 34.58a.8.8 0 0 0 .8-.81v-1.43c0-.54-.24-1.05-.66-1.41a18.21 18.21 0 0 0-2.71-1.8v-1.22c.27-.31.42-.71.42-1.14v-2.08c0-1.49-1.2-2.69-2.68-2.69h-.45a2.68 2.68 0 0 0-2.67 2.69v2.08c0 .43.15.83.41 1.14v1.22c-.59.32-1.68.95-2.71 1.8-.42.35-.66.87-.66 1.41v1.43c0 .45.36.81.81.81a.8.8 0 0 0 .81-.81v-1.43a.2.2 0 0 1 .07-.15 15.12 15.12 0 0 1 2.8-1.8.91.91 0 0 0 .51-.82v-2a.83.83 0 0 0-.36-.68c-.02 0-.06-.05-.06-.1V24.7c0-.59.47-1.06 1.06-1.06h.45c.59 0 1.06.47 1.06 1.06v2.09c0 .06-.04.1-.06.1a.83.83 0 0 0-.36.68v2c0 .35.2.67.51.82.25.12 1.58.79 2.8 1.8.05.04.07.09.07.15v1.43a.8.8 0 0 0 .8.81zM24.91 34.58a.8.8 0 0 0 .8-.81v-1.43c0-.54-.24-1.06-.66-1.41a18.21 18.21 0 0 0-2.71-1.8v-1.22c.27-.31.42-.71.42-1.14v-2.08c0-1.49-1.2-2.69-2.68-2.69h-.45a2.68 2.68 0 0 0-2.67 2.69v2.08c0 .43.15.83.41 1.14v1.22c-.59.32-1.68.95-2.71 1.8-.42.35-.66.87-.66 1.41v1.43c0 .45.36.81.81.81a.8.8 0 0 0 .81-.81v-1.43a.2.2 0 0 1 .07-.15 15.12 15.12 0 0 1 2.8-1.8.91.91 0 0 0 .51-.82v-2a.83.83 0 0 0-.36-.68c-.02 0-.06-.05-.06-.1V24.7c0-.59.47-1.06 1.06-1.06h.45c.59 0 1.06.47 1.06 1.06v2.09c0 .06-.04.1-.06.1a.83.83 0 0 0-.36.68v2c0 .35.2.67.51.82.25.12 1.58.79 2.8 1.8.05.04.07.09.07.15v1.43a.8.8 0 0 0 .8.81zM5.56 23.63H6c.57 0 1.04.47 1.04 1.05v2.06c0 .06-.04.09-.04.1a.78.78 0 0 0-.36.67v1.99c0 .34.19.66.5.81.26.12 1.56.79 2.77 1.78a.2.2 0 0 1 .07.15v1.41a.8.8 0 0 0 1.61 0v-1.41a1.8 1.8 0 0 0-.65-1.4 16.84 16.84 0 0 0-2.68-1.78v-1.2c.26-.31.42-.7.42-1.13v-2.06A2.67 2.67 0 0 0 6.02 22h-.44a2.68 2.68 0 0 0-2.67 2.67v2.06c0 .42.15.82.42 1.13v1.2c-.59.32-1.66.94-2.68 1.78-.41.34-.65.85-.65 1.4v1.41c0 .45.36.81.81.81a.8.8 0 0 0 .81-.81v-1.41a.2.2 0 0 1 .06-.15 15.58 15.58 0 0 1 2.77-1.78.9.9 0 0 0 .51-.81v-1.99a.8.8 0 0 0-.36-.67c-.02-.01-.05-.04-.05-.1v-2.06a1 1 0 0 1 1.01-1.05z"/><path fill="#fff" d="M34.09 21.66a.8.8 0 0 0 .8-.82v-3.01a.8.8 0 0 0-.8-.81h-13.3v-2.21a.8.8 0 0 0-.81-.81.8.8 0 0 0-.81.81v2.21H5.81a.8.8 0 0 0-.81.81v3.01a.8.8 0 1 0 1.62 0v-2.2h12.55v2.2a.8.8 0 1 0 1.62 0v-2.2h12.49v2.2c0 .46.36.82.81.82z"/></svg>