<svg xmlns="http://www.w3.org/2000/svg" width="68" height="61" viewBox="0 0 68 61"><path fill="#ff5656" d="M13.39 10.02c-.52.55-.52 1.44.03 1.97.53.54 1.4.54 1.92-.02a25.88 25.88 0 0 1 36.98-.8l-2.5.03a1.4 1.4 0 0 0-1.35 1.42c.01.76.62 1.38 1.36 1.38h.01l5.81-.07A1.38 1.38 0 0 0 57 12.52l-.06-5.95a1.39 1.39 0 0 0-1.36-1.39h-.01a1.4 1.4 0 0 0-1.35 1.42l.03 2.6A28.61 28.61 0 0 0 33.89 1a28.66 28.66 0 0 0-20.5 9.02zM52.64 50.03a25.85 25.85 0 0 1-36.96.79l2.5-.03a1.38 1.38 0 0 0 1.35-1.41A1.39 1.39 0 0 0 18.17 48h-.02l-5.8.07c-.76.01-1.35.64-1.35 1.41l.07 5.96c.01.76.62 1.38 1.36 1.38h.01a1.38 1.38 0 0 0 1.35-1.41l-.02-2.6a28.52 28.52 0 0 0 20 8.19h.34a28.64 28.64 0 0 0 20.5-8.99c.52-.55.52-1.44-.03-1.98a1.34 1.34 0 0 0-1.94 0z"/><path fill="#1d79b1" d="M10.82 31.19c0-.48-.24-.92-.61-1.18a.92.92 0 0 1-.39-.76v-5.17c0-1.79 1.4-3.24 3.13-3.24h1.08a3.18 3.18 0 0 1 3.12 3.24v5.17c0 .3-.15.59-.39.76-.38.26-.6.7-.6 1.18v4.98c0 .64.34 1.21.89 1.48.63.32 3.85 2.01 6.84 4.54.23.21.37.52.37.85v3.54c0 .79.61 1.42 1.37 1.42.76 0 1.37-.63 1.37-1.42v-3.54A4 4 0 0 0 25.62 40a41.27 41.27 0 0 0-6.73-4.56v-3.59a3.83 3.83 0 0 0 1.01-2.6v-5.17A5.97 5.97 0 0 0 14.04 18h-1.08a5.97 5.97 0 0 0-5.86 6.08v5.17c0 .98.36 1.91 1.01 2.6v3.59A41.07 41.07 0 0 0 1.38 40 4 4 0 0 0 0 43.04v3.54C0 47.37.61 48 1.37 48c.76 0 1.37-.63 1.37-1.42v-3.54c0-.33.14-.63.37-.85a38.09 38.09 0 0 1 6.84-4.54c.53-.27.89-.86.89-1.48v-4.98zM66.62 40.01a40.61 40.61 0 0 0-6.73-4.56v-3.6a3.82 3.82 0 0 0 1.01-2.59v-5.18A5.97 5.97 0 0 0 55.04 18h-1.08a5.97 5.97 0 0 0-5.86 6.08v5.18c0 .97.36 1.9 1.01 2.59v3.59c-1.32.7-4.11 2.34-6.73 4.56A3.98 3.98 0 0 0 41 43.04v3.54c0 .79.61 1.42 1.37 1.42.76 0 1.37-.63 1.37-1.42v-3.54c0-.33.14-.63.37-.85a36.94 36.94 0 0 1 6.84-4.54c.53-.28.88-.86.88-1.48v-4.99c0-.47-.23-.92-.61-1.18a.92.92 0 0 1-.39-.76v-5.17c0-1.8 1.4-3.24 3.13-3.24h1.08a3.18 3.18 0 0 1 3.13 3.24v5.17c0 .3-.16.59-.39.76-.39.26-.61.71-.61 1.18v4.99c0 .63.35 1.2.88 1.48.63.31 3.86 2 6.84 4.54.23.2.37.52.37.85v3.54c0 .79.61 1.42 1.37 1.42.76 0 1.37-.63 1.37-1.42v-3.54a4.03 4.03 0 0 0-1.38-3.03z"/><path fill="#ff5656" d="M44 23.25A5.21 5.21 0 0 0 38.76 18c-1.39 0-2.71.55-3.7 1.54l-.07.06-.06-.06a5.17 5.17 0 0 0-7.4 0 5.24 5.24 0 0 0 0 7.42l6.71 6.72.01.01c.21.2.47.31.74.31.28 0 .54-.11.75-.31l6.72-6.73c1-.99 1.54-2.31 1.54-3.71zm-3.02 2.23l-5.97 5.99-5.99-6.01a3.08 3.08 0 0 1-.92-2.22 3.12 3.12 0 0 1 3.13-3.15c.83 0 1.63.33 2.22.92l.8.81c.42.41 1.07.41 1.49 0l.8-.81a3.14 3.14 0 0 1 5.35 2.23c.01.85-.31 1.64-.91 2.24z"/></svg>