<svg xmlns="http://www.w3.org/2000/svg" width="57" height="71" viewBox="0 0 57 71"><path fill="#1d79b1" d="M2.43 57.99c.81 0 1.45-.63 1.45-1.42v-7.2c0-1.1.5-2.13 1.36-2.83a84.45 84.45 0 0 1 14.97-9.42 1.85 1.85 0 0 0 1.08-1.69V25.3c0-.47-.25-.91-.64-1.17a3.3 3.3 0 0 1-1.51-2.77V10.88a8.14 8.14 0 0 1 8.21-8.04h2.31c4.51 0 8.2 3.61 8.2 8.04v10.5c0 1.1-.57 2.13-1.51 2.76-.41.26-.64.7-.64 1.18v10.13c0 .73.41 1.37 1.08 1.69 1.36.64 8.44 4.15 14.96 9.41.86.7 1.36 1.74 1.36 2.84v7.19c0 .79.64 1.42 1.44 1.42.81 0 1.45-.63 1.45-1.42v-7.19c0-1.96-.88-3.8-2.41-5.03a87.2 87.2 0 0 0-14.99-9.5v-8.84a6.08 6.08 0 0 0 2.15-4.64v-10.5A11 11 0 0 0 29.66 0h-2.31a11 11 0 0 0-11.1 10.88v10.5a6.1 6.1 0 0 0 2.15 4.64v8.84a87.2 87.2 0 0 0-14.99 9.5A6.43 6.43 0 0 0 1 49.39v7.19a1.4 1.4 0 0 0 1.43 1.41z"/><path fill="#ff5656" d="M31.54 37c-.81 0-1.45.64-1.45 1.45a2.1 2.1 0 0 1-.67 1.54.79.79 0 0 0-.25.2c-.34.22-.75.37-1.17.37a2.12 2.12 0 0 1-2.11-2.11c0-.81-.64-1.45-1.44-1.45-.81 0-1.45.64-1.45 1.45 0 1.18.41 2.27 1.11 3.13l-1.07 24.84c-.01.42.16.85.49 1.14l3.4 3.07c.28.25.63.37.97.37.35 0 .7-.13.96-.38l3.45-3.12c.32-.29.5-.7.49-1.14l-1.12-24.54A4.99 4.99 0 0 0 33 38.45 1.46 1.46 0 0 0 31.54 37zm-3.66 30.6l-1.93-1.74.97-22.52a5.4 5.4 0 0 0 1.91.04l1.01 22.44zM50.49 38c.83 0 1.5-.63 1.5-1.41v-1.73h.08c2.72 0 4.93-2.08 4.93-4.64 0-2.57-2.21-4.65-4.93-4.65h-3.14A1.89 1.89 0 0 1 47 23.74c0-1 .87-1.82 1.93-1.82h5.54c.84 0 1.5-.63 1.5-1.41 0-.79-.66-1.42-1.5-1.42h-2.46v-1.68c0-.78-.67-1.41-1.5-1.41s-1.5.63-1.5 1.41v1.68h-.08c-2.72 0-4.93 2.09-4.93 4.65 0 2.57 2.21 4.65 4.93 4.65h3.14c1.07 0 1.93.83 1.93 1.83 0 .99-.87 1.82-1.93 1.82h-5.65c-.83 0-1.5.63-1.5 1.41 0 .79.67 1.41 1.5 1.41h2.57v1.73c0 .78.67 1.41 1.5 1.41z"/></svg>