<svg xmlns="http://www.w3.org/2000/svg" width="71" height="60" viewBox="0 0 71 60"><path fill="#1d79b1" d="M66.3 10.14h-6.16c-.71 0-1.29.57-1.29 1.27 0 .7.58 1.27 1.29 1.27h6.16c1.17 0 2.13.94 2.13 2.11v40.56a2.13 2.13 0 0 1-2.13 2.11h-.08a2.18 2.18 0 0 1-2.06-2.19V19.86a4.69 4.69 0 0 0-4.71-4.65h-2.14V4.65A4.68 4.68 0 0 0 52.61 0H18.39a4.68 4.68 0 0 0-4.7 4.65v5.49h-2.14a4.69 4.69 0 0 0-4.71 4.65v3.04c0 .7.58 1.27 1.29 1.27.71 0 1.28-.57 1.28-1.27v-3.04c0-1.17.96-2.11 2.14-2.11h2.14v7.6H4.7A4.68 4.68 0 0 0 0 24.93v30.42A4.68 4.68 0 0 0 4.7 60h61.6a4.7 4.7 0 0 0 4.7-4.65V14.79a4.68 4.68 0 0 0-4.7-4.65zM16.25 4.65c0-1.17.96-2.11 2.14-2.11h34.22c1.18 0 2.14.94 2.14 2.11v10.56h-7.53a9.43 9.43 0 0 0-6.84 2.94 6.87 6.87 0 0 1-4.97 2.13H16.25zM2.57 55.35V24.93c0-1.17.96-2.11 2.13-2.11h30.71a9.42 9.42 0 0 0 6.84-2.94 6.87 6.87 0 0 1 4.97-2.13h12.23c1.18 0 2.14.94 2.14 2.11v35.41c0 .79.19 1.54.53 2.19H4.7a2.12 2.12 0 0 1-2.13-2.11z"/><path fill="#1d79b1" d="M48.85 4H21.29C20.58 4 20 4.65 20 5.46c0 .8.58 1.46 1.29 1.46h27.56c.72 0 1.3-.66 1.3-1.46 0-.81-.58-1.46-1.3-1.46zM48.85 11H21.29c-.71 0-1.29.65-1.29 1.46 0 .8.58 1.46 1.29 1.46h27.56c.72 0 1.3-.66 1.3-1.46 0-.81-.58-1.46-1.3-1.46zM35.69 15H21.31c-.74 0-1.33.7-1.31 1.55.02.82.65 1.45 1.36 1.45h14.33c.72 0 1.31-.67 1.31-1.5s-.59-1.5-1.31-1.5z"/><path fill="#ff5656" d="M40.09 33.96h-1.31v-1.24A3.82 3.82 0 0 0 34.87 29h-1.74a3.82 3.82 0 0 0-3.91 3.72v1.24h-1.31A3.82 3.82 0 0 0 24 37.67v1.66a3.82 3.82 0 0 0 3.91 3.71h1.31v1.24A3.82 3.82 0 0 0 33.13 48h1.74c.72 0 1.3-.55 1.3-1.24 0-.68-.58-1.24-1.3-1.24h-1.74c-.72 0-1.3-.55-1.3-1.24V41.8c0-.68-.59-1.23-1.31-1.23h-2.61c-.72 0-1.3-.56-1.3-1.24v-1.66c0-.68.58-1.24 1.3-1.24h2.61c.72 0 1.31-.55 1.31-1.23v-2.48c0-.69.58-1.24 1.3-1.24h1.74c.72 0 1.3.55 1.3 1.24v2.48c0 .68.59 1.23 1.31 1.23h2.61c.72 0 1.3.56 1.3 1.24v1.66c0 .68-.58 1.24-1.3 1.24h-2.61c-.72 0-1.31.55-1.31 1.23v2.48c0 .69.59 1.24 1.31 1.24.72 0 1.3-.55 1.3-1.24v-1.24h1.31A3.82 3.82 0 0 0 44 39.33v-1.66a3.82 3.82 0 0 0-3.91-3.71z"/></svg>