<svg xmlns="http://www.w3.org/2000/svg" width="47" height="67" viewBox="0 0 47 67"><path fill="#1d79b1" d="M16.7 25H1.3c-.72 0-1.3.61-1.3 1.37v16.26C0 43.39.58 44 1.3 44h15.4c.72 0 1.3-.61 1.3-1.37V26.37c0-.76-.58-1.37-1.3-1.37zm-1.29 16.26H2.59V27.74h12.82z"/><path fill="#1d79b1" d="M1.35 67h16.01c.75 0 1.35-.6 1.35-1.35v-6.64h26.94c.75 0 1.35-.6 1.35-1.35V9.42c0-.75-.6-1.35-1.35-1.35H28.61l2.77-2.77c.53-.53.53-1.37 0-1.9a1.33 1.33 0 0 0-1.9 0L24.4 8.47a1.33 1.33 0 0 0 0 1.9l5.08 5.07c.26.26.61.4.95.4.34 0 .69-.14.95-.4.53-.53.53-1.37 0-1.9l-2.77-2.77H44.3v45.55H18.71v-6.65c0-.75-.6-1.35-1.35-1.35H1.35c-.75 0-1.35.6-1.35 1.35v15.98C0 66.39.61 67 1.35 67zM2.7 51.01h13.31v13.3H2.7z"/><path fill="#ff5656" d="M16.7 0H1.3C.58 0 0 .61 0 1.37v16.26C0 18.39.58 19 1.3 19h15.4c.72 0 1.3-.61 1.3-1.37V1.37C18 .61 17.42 0 16.7 0zm-1.29 16.26H2.59V2.74h12.82z"/></svg>