<svg xmlns="http://www.w3.org/2000/svg" width="49" height="51" viewBox="0 0 49 51"><defs><clipPath id="a"><path fill="#fff" d="M225 1155.5a24.5 24.5 0 1 1 49 0v2a24.5 24.5 0 1 1-49 0z"/></clipPath></defs><path fill="none" stroke="#1d79b1" stroke-miterlimit="50" stroke-width="4" d="M225 1155.5a24.5 24.5 0 1 1 49 0v2a24.5 24.5 0 1 1-49 0z" clip-path="url(&quot;#a&quot;)" transform="translate(-225 -1131)"/><path fill="#ff5656" d="M15.2 26.2h8.6v8.6c0 .67.53 1.2 1.2 1.2.67 0 1.2-.53 1.2-1.2v-8.6h8.6c.67 0 1.2-.53 1.2-1.2 0-.67-.53-1.2-1.2-1.2h-8.6v-8.6c0-.67-.53-1.2-1.2-1.2-.67 0-1.2.53-1.2 1.2v8.6h-8.6c-.67 0-1.2.53-1.2 1.2 0 .67.53 1.2 1.2 1.2z"/></svg>