<svg xmlns="http://www.w3.org/2000/svg" width="50" height="50" viewBox="0 0 50 50"><path fill="#1d79b1" d="M50 38.99V1.01A1 1 0 0 0 48.99 0H11.01A1 1 0 0 0 10 1.01v37.98A1 1 0 0 0 11.01 40h37.98A1 1 0 0 0 50 38.99zm-37.98-1.01V2.02h35.96v35.96z"/><path fill="#ff5656" d="M1.01 50h37.98A1 1 0 0 0 40 48.99a1 1 0 0 0-1.01-1.01H2.02V11.01A1 1 0 0 0 1.01 10 1 1 0 0 0 0 11.01v37.98A1 1 0 0 0 1.01 50z"/><path fill="#1d79b1" d="M21.98 20.98h7.04v7.04c0 .54.43.98.98.98s.98-.44.98-.98v-7.04h7.04c.54 0 .98-.43.98-.98a.98.98 0 0 0-.98-.98h-7.04v-7.04A.98.98 0 0 0 30 11a.98.98 0 0 0-.98.98v7.04h-7.04A.98.98 0 0 0 21 20c0 .55.44.98.98.98z"/></svg>