<svg xmlns="http://www.w3.org/2000/svg" width="56" height="49" viewBox="0 0 56 49"><path fill="#1d79b1" d="M17.12 17.6A3.17 3.17 0 0 0 16 20.02v2.84c0 .63.5 1.14 1.12 1.14.63 0 1.13-.51 1.13-1.14v-2.84c0-.25.11-.49.3-.66a31.76 31.76 0 0 1 5.57-3.63c.44-.22.73-.69.73-1.19v-3.99c0-.38-.19-.73-.49-.94a.73.73 0 0 1-.32-.6V4.87a2.56 2.56 0 0 1 2.53-2.58h.87c1.4 0 2.53 1.16 2.53 2.58v4.14c0 .24-.11.46-.31.6-.32.21-.5.56-.5.94v3.99c0 .51.28.97.72 1.19.5.26 3.14 1.61 5.57 3.63.19.17.3.41.3.66v2.84c0 .63.5 1.14 1.13 1.14.62 0 1.12-.51 1.12-1.14v-2.84c0-.94-.41-1.84-1.12-2.42a33.9 33.9 0 0 0-5.48-3.65v-2.87c.53-.56.82-1.3.82-2.09V4.87A4.83 4.83 0 0 0 27.44 0h-.87a4.83 4.83 0 0 0-4.78 4.87v4.14c0 .78.29 1.52.82 2.08v2.86a33.44 33.44 0 0 0-5.49 3.65zM54.88 49c.62 0 1.12-.51 1.12-1.14v-2.83c0-.95-.41-1.84-1.12-2.43a33 33 0 0 0-5.48-3.64v-2.88c.52-.55.82-1.29.82-2.08v-4.14A4.83 4.83 0 0 0 45.44 25h-.88a4.83 4.83 0 0 0-4.78 4.86V34c0 .79.3 1.53.82 2.08v2.88a33 33 0 0 0-5.48 3.64A3.16 3.16 0 0 0 34 45.03v2.83c0 .63.5 1.14 1.12 1.14.63 0 1.13-.51 1.13-1.14v-2.83c0-.26.11-.5.31-.66a29.47 29.47 0 0 1 5.56-3.63c.44-.22.73-.7.73-1.19v-3.99c0-.38-.2-.74-.5-.95a.7.7 0 0 1-.32-.6v-4.13a2.56 2.56 0 0 1 2.53-2.58h.88a2.56 2.56 0 0 1 2.53 2.58v4.13c0 .25-.11.47-.32.6-.32.21-.5.57-.5.95v3.99c0 .51.29.97.73 1.19.5.25 3.13 1.6 5.56 3.63.2.16.31.4.31.66v2.83c0 .63.51 1.14 1.13 1.14zM20.88 42.6a33 33 0 0 0-5.48-3.64v-2.88c.52-.55.82-1.29.82-2.08v-4.14A4.83 4.83 0 0 0 11.44 25h-.88a4.83 4.83 0 0 0-4.78 4.86V34c0 .79.3 1.53.82 2.08v2.88a33 33 0 0 0-5.48 3.64A3.16 3.16 0 0 0 0 45.03v2.83C0 48.49.5 49 1.12 49c.63 0 1.13-.51 1.13-1.14v-2.83c0-.26.11-.5.31-.66a29.47 29.47 0 0 1 5.56-3.63c.44-.22.73-.7.73-1.19v-3.99c0-.38-.2-.74-.5-.95a.7.7 0 0 1-.32-.6v-4.13a2.56 2.56 0 0 1 2.53-2.58h.88a2.56 2.56 0 0 1 2.53 2.58v4.13c0 .25-.11.47-.32.6-.32.21-.5.57-.5.95v3.99c0 .51.29.97.73 1.19.5.25 3.13 1.59 5.56 3.63.2.16.31.4.31.66v2.83c0 .63.5 1.14 1.13 1.14.62 0 1.12-.51 1.12-1.14v-2.83c0-.95-.41-1.84-1.12-2.43z"/><path fill="#ff5656" d="M35.32 36.84a1.12 1.12 0 0 0 1.53-.41 1.1 1.1 0 0 0-.41-1.52l-6.31-3.6v-7.2c0-.62-.5-1.11-1.13-1.11-.62 0-1.12.49-1.12 1.11v7.2l-6.32 3.61a1.11 1.11 0 0 0 .57 2.08 1 1 0 0 0 .56-.15l6.31-3.6z"/></svg>