<svg xmlns="http://www.w3.org/2000/svg" width="68" height="38" viewBox="0 0 68 38"><path fill="#1d79b1" d="M53.88 9.82h1.08c1.78 0 3.21 1.54 3.21 3.42v5.37c0 .34-.16.65-.42.84-.38.25-.59.69-.59 1.16v5.17c0 .64.33 1.2.87 1.48.63.33 3.89 2.08 6.92 4.73.25.23.4.56.4.93v3.67c0 .78.59 1.41 1.32 1.41.74 0 1.33-.63 1.33-1.41v-3.67c0-1.21-.5-2.34-1.38-3.11a40.58 40.58 0 0 0-6.83-4.74v-3.8a3.92 3.92 0 0 0 1.02-2.66v-5.37c0-3.45-2.64-6.24-5.86-6.24h-1.09C50.62 7 48 9.81 48 13.24v5.37c0 1.01.37 1.95 1.02 2.66v1.84c0 .78.59 1.4 1.32 1.4.74 0 1.33-.62 1.33-1.4v-2.48c0-.47-.23-.91-.59-1.17-.27-.19-.43-.5-.43-.84v-5.37c0-1.89 1.45-3.43 3.23-3.43zM1.38 29.81A4.15 4.15 0 0 0 0 32.92v3.67C0 37.37.59 38 1.33 38c.73 0 1.32-.63 1.32-1.41v-3.67c0-.36.15-.7.4-.93 3.03-2.63 6.3-4.4 6.93-4.73.54-.28.87-.84.87-1.48v-5.17c0-.47-.23-.91-.59-1.16-.27-.19-.43-.5-.43-.84v-5.37c0-1.9 1.45-3.42 3.22-3.42h1.08c1.78 0 3.22 1.54 3.22 3.42v5.37c0 .34-.16.65-.43.84-.38.25-.59.69-.59 1.16v2.59c0 .79.59 1.41 1.33 1.41.73 0 1.32-.62 1.32-1.41v-1.93A3.97 3.97 0 0 0 20 18.61v-5.37C20 9.79 17.36 7 14.13 7h-1.08c-3.24 0-5.87 2.81-5.87 6.24v5.37c0 1.01.38 1.95 1.02 2.66v3.8c-1.3.73-4.15 2.42-6.82 4.74z"/><path fill="#ff5656" d="M49.65 38c.75 0 1.35-.61 1.35-1.36v-4.6c0-1.39-.6-2.69-1.66-3.57a53.73 53.73 0 0 0-9.13-6v-5.18a4.4 4.4 0 0 0 1.33-3.16V7.41A7.38 7.38 0 0 0 34.22 0h-1.44a7.38 7.38 0 0 0-7.32 7.41v6.72a4.4 4.4 0 0 0 1.33 3.16v5.18a53.73 53.73 0 0 0-9.13 6A4.61 4.61 0 0 0 16 32.04v4.6a1.35 1.35 0 1 0 2.7 0v-4.6c0-.57.24-1.1.68-1.46a51.38 51.38 0 0 1 9.19-5.96c.58-.28.93-.86.93-1.49v-6.47c0-.45-.23-.88-.6-1.13a1.68 1.68 0 0 1-.73-1.39V7.42a4.66 4.66 0 0 1 4.63-4.68h1.43a4.66 4.66 0 0 1 4.63 4.68v6.72a1.7 1.7 0 0 1-.73 1.39c-.39.25-.6.68-.6 1.13v6.47c0 .63.35 1.21.92 1.5.83.41 5.18 2.63 9.2 5.96.43.36.68.9.68 1.46v4.6A1.3 1.3 0 0 0 49.65 38z"/></svg>