<svg xmlns="http://www.w3.org/2000/svg" width="36" height="52" viewBox="0 0 36 52"><path fill="#ff5656" d="M1.59 37.57l-.01.16-.01.22a3.5 3.5 0 0 0 1.06 3.78c.45.4.64.99.54 1.61a1.9 1.9 0 0 1-1.15 1.48l-.03.01a2.69 2.69 0 0 0-1.72 2.45c-.02.3-.08.64-.12.99-.05.37-.1.75-.13 1.12a2.5 2.5 0 0 0 .44 1.84c.38.47.94.73 1.68.77H31.85c.38 0 .87-.05 1.33-.45.61-.47.9-1.24.8-2.11-.05-.44-.11-.88-.19-1.31l-.17-1.25-.01-.08c-.24-1.22-.99-1.7-1.59-1.89a1.86 1.86 0 0 1-1.23-1.48 2.12 2.12 0 0 1 .79-2.05c.73-.52 1.07-1.3.98-2.24-.05-.72-.15-1.45-.26-2.15-.17-1.26-.96-1.99-2.18-1.99H4.37c-1.88.05-2.51.62-2.78 2.57zm28.65-.36l.03.15c.1.69.19 1.34.25 2.01.02.19-.02.21-.11.27l-.05.04a4.29 4.29 0 0 0-1.58 4.17 3.94 3.94 0 0 0 2.67 3.16c.07.02.1.03.14.2.05.43.11.86.18 1.28l.17 1.25v.12H2.23a.69.69 0 0 1-.19-.04l.02-.21v-.04c.02-.3.07-.64.11-.99.05-.37.1-.75.13-1.15.02-.29.04-.42.49-.62a4.02 4.02 0 0 0 2.4-3.11 3.98 3.98 0 0 0-1.2-3.59c-.6-.55-.63-.93-.46-1.53.09-.28.1-.57.1-.77.04-.32.08-.48.11-.58.1-.01.29-.03.64-.03h25.74l.12.01z"/><path fill="#ff5656" d="M12.06 45h11.88c.59 0 1.06-.44 1.06-1s-.47-1-1.06-1H12.06c-.59 0-1.06.44-1.06 1s.48 1 1.06 1z"/><path fill="#1d79b1" d="M4.11 22.45a52.32 52.32 0 0 0-.08 3.29L4 27.88v3.41c0 1.46 1.15 2.6 2.62 2.6h14.61l6.48.11a2.4 2.4 0 0 0 2.45-2.4v-2.28c0-1.51-.76-2.89-2.07-3.7-.01-.01-1.69-1.05-3.58-2.7a1.06 1.06 0 0 0-1.49.11c-.38.44-.34 1.1.11 1.48 2.05 1.79 3.86 2.9 3.86 2.9a2.21 2.21 0 0 1 1.07 1.92v2.29c0 .22-.19.29-.34.29l-6.48-.1H6.62c-.31 0-.51-.21-.51-.51v-3.36l.03-2.17c.01-1.1.01-2.12.07-3.21.12-2.61.41-4.8.92-6.86.47-2 1.09-4.08 2.39-5.87 1.27-1.84 2.47-2.55 4.14-2.47a4.58 4.58 0 0 0 4.56-2.64c.3-.57.78-1.02 1.44-1.34-.01 1.76.8 3.27 2.4 4.49 1.75 1.34 3.48 2.7 5.21 4.04l5.21 4.05c.3.24.42.42.43.5.01.08-.06.28-.28.56l-1.7 1.99c-.71.78-1.3.88-2.2.4l-.03-.01c-.51-.26-.98-.49-1.4-.77l-.02-.02a4.64 4.64 0 0 0-3.5-.55l-.03.01c-1.2.31-2.28.05-3.41-.79l-.77-.62a1.05 1.05 0 0 0-1.31 1.63l.77.63.02.02a5.94 5.94 0 0 0 5.2 1.18 2.5 2.5 0 0 1 1.9.27c.51.34 1.06.62 1.59.88 1.78.94 3.37.66 4.75-.85l.02-.03 1.73-2.02.02-.03c.57-.74.82-1.42.72-2.13-.09-.7-.49-1.32-1.22-1.9l-5.21-4.05-5.22-4.06c-1.28-.96-1.76-2.07-1.52-3.45l.01-.06c.08-.76-.27-1.18-.49-1.36-.28-.24-.79-.47-1.6-.23a5.47 5.47 0 0 0-3.38 2.66c-.55 1.1-1.33 1.54-2.6 1.5-3.08-.14-4.81 1.71-5.95 3.34-1.51 2.07-2.23 4.5-2.73 6.59-.54 2.2-.85 4.51-.96 7.26z"/></svg>