<svg xmlns="http://www.w3.org/2000/svg" width="53" height="51" viewBox="0 0 53 51"><path fill="#1d79b1" d="M3.37 34a.92.92 0 0 0 .89-1.24A22.74 22.74 0 0 1 9.55 8.79a23.4 23.4 0 0 1 16.47-6.95 23.39 23.39 0 0 1 16.62 6.58l.14.13-2.83.03a.95.95 0 0 0-.93.94c.01.51.43.92.94.92h.01l5.1-.06c.25 0 .49-.1.66-.27a.91.91 0 0 0 .27-.66l-.06-5.03a.94.94 0 0 0-.95-.92.94.94 0 0 0-.93.94l.03 2.8-.15-.14A25.26 25.26 0 0 0 26.28 0h-.3A25.26 25.26 0 0 0 8.2 7.51a24.7 24.7 0 0 0-5.71 25.9c.14.36.5.59.88.59zM50.51 17.62a.96.96 0 0 0-1.2-.57.93.93 0 0 0-.57 1.19 22.77 22.77 0 0 1-5.29 23.97 23.5 23.5 0 0 1-16.74 6.94c-5.9 0-11.8-2.18-16.35-6.57l-.15-.14 2.84-.03a.94.94 0 0 0 .93-.94.93.93 0 0 0-.94-.91h-.01l-5.1.06a.94.94 0 0 0-.93.94l.06 5.03c.01.51.43.92.94.92h.01a.94.94 0 0 0 .93-.94l-.03-2.8.15.13A25.34 25.34 0 0 0 26.72 51c6.57 0 13.14-2.51 18.08-7.5a24.75 24.75 0 0 0 5.71-25.88z"/><path fill="#ff5656" d="M35.52 22.82h-1.66v-2.84A6.93 6.93 0 0 0 26.99 13a6.94 6.94 0 0 0-6.86 6.98v2.84h-1.67c-.81 0-1.46.66-1.46 1.49v11.2c0 .83.65 1.49 1.46 1.49h17.08c.81 0 1.46-.66 1.46-1.49v-11.2a1.5 1.5 0 0 0-1.48-1.49zM27 16c2.2 0 4 1.84 4 4.1V23h-8v-2.9c0-2.26 1.8-4.1 4-4.1zm7 18H20v-8h14z"/></svg>