<svg xmlns="http://www.w3.org/2000/svg" width="39" height="39" viewBox="0 0 39 39"><path fill="#fff" d="M19.78 14a5.78 5.78 0 1 0 0 11.57 5.78 5.78 0 0 0 0-11.57zm0 9.91a4.13 4.13 0 1 1 0-8.26 4.13 4.13 0 0 1 0 8.26z"/><path fill="#fff" d="M33.44 6.57A18.97 18.97 0 0 0 9.8 3.98a4.11 4.11 0 0 0-5.56.26 4.11 4.11 0 0 0-.26 5.56A18.97 18.97 0 0 0 20 39c5.08 0 9.85-1.98 13.44-5.56A18.91 18.91 0 0 0 39 20a18.9 18.9 0 0 0-5.56-13.43zM5.4 5.4a2.5 2.5 0 0 1 3.51 0l.15.17.01.01a2.48 2.48 0 0 1-3.49 3.49l-.01-.01-.17-.15a2.5 2.5 0 0 1 0-3.51zm26.87 26.87A17.26 17.26 0 0 1 20 37.35 17.32 17.32 0 0 1 5.28 10.83a4.1 4.1 0 0 0 5.55-5.55 17.32 17.32 0 0 1 21.44 2.46 17.37 17.37 0 0 1 0 24.53z"/><path fill="#fff" d="M32.33 17.08a12.38 12.38 0 1 0-20.61 12.16.8.8 0 0 0 .58.23c.21 0 .42-.08.59-.24a.82.82 0 0 0-.02-1.17 10.75 10.75 0 0 1 7.52-18.41 10.8 10.8 0 0 1 10.29 7.66 3.33 3.33 0 0 0 0 6.16 10.8 10.8 0 0 1-13.36 7.21.83.83 0 0 0-1.03.56c-.13.43.12.89.56 1.02a12.39 12.39 0 0 0 15.48-8.56 3.33 3.33 0 0 0 0-6.62zm-.38 4.99a1.68 1.68 0 1 1 1.68-1.68c0 .92-.75 1.68-1.68 1.68z"/></svg>