<svg xmlns="http://www.w3.org/2000/svg" width="52" height="50" viewBox="0 0 52 50"><path fill="#ff5656" d="M38.06 26.91h5.04A4.55 4.55 0 0 0 47.44 30 4.54 4.54 0 0 0 52 25.5c0-2.48-2.05-4.5-4.56-4.5a4.56 4.56 0 0 0-4.51 3.84h-4.87c-.59 0-1.06.46-1.06 1.04 0 .57.48 1.03 1.06 1.03zm9.38-3.83a2.43 2.43 0 0 1 2.45 2.42c0 1.34-1.1 2.42-2.45 2.42a2.43 2.43 0 0 1-2.45-2.42 2.43 2.43 0 0 1 2.45-2.42zM34.3 17.69c.2.2.47.31.73.31.27 0 .54-.11.74-.31l3.23-3.3a4.48 4.48 0 0 0 5.68-.56 4.65 4.65 0 0 0 0-6.49 4.4 4.4 0 0 0-6.36 0 4.64 4.64 0 0 0-.72 5.5l-3.29 3.35a1.08 1.08 0 0 0-.01 1.5zm5.49-8.86a2.4 2.4 0 0 1 3.42 0 2.5 2.5 0 0 1 0 3.49c-.46.47-1.06.72-1.71.72-.65 0-1.25-.25-1.71-.72a2.51 2.51 0 0 1 0-3.49zM25.12 8.89v5.06a1.04 1.04 0 0 0 2.08 0v-4.9a4.54 4.54 0 0 0 3.8-4.5A4.53 4.53 0 0 0 26.5 0 4.53 4.53 0 0 0 22 4.55a4.55 4.55 0 0 0 3.12 4.34zm1.38-6.78a2.43 2.43 0 0 1 2.42 2.44A2.43 2.43 0 0 1 26.5 7a2.43 2.43 0 0 1-2.42-2.45 2.43 2.43 0 0 1 2.42-2.44zM5.38 30c1.93 0 3.58-1.3 4.17-3.09h4.44c.56 0 1.01-.46 1.01-1.04 0-.57-.45-1.04-1.01-1.04H9.71A4.43 4.43 0 0 0 5.38 21 4.44 4.44 0 0 0 1 25.49 4.45 4.45 0 0 0 5.38 30zm0-6.92c1.3 0 2.35 1.08 2.35 2.41a2.38 2.38 0 0 1-2.35 2.42 2.38 2.38 0 0 1-2.35-2.42 2.37 2.37 0 0 1 2.35-2.41zM11.57 15.02c.82 0 1.61-.22 2.3-.62l3.33 3.29c.2.2.48.31.74.31.27 0 .55-.11.75-.31.41-.41.41-1.06 0-1.47l-3.3-3.26A4.52 4.52 0 1 0 11.56 6a4.48 4.48 0 0 0-3.23 7.69 4.61 4.61 0 0 0 3.24 1.33zM9.83 8.79a2.46 2.46 0 0 1 3.47 0 2.4 2.4 0 0 1 0 3.43 2.47 2.47 0 0 1-3.47 0 2.42 2.42 0 0 1 0-3.43z"/><path fill="#1d79b1" d="M21.01 32.5v4.51a44.5 44.5 0 0 0-7.66 5.11A3.81 3.81 0 0 0 12 45.06v3.9c0 .58.45 1.04 1.01 1.04s1.01-.46 1.01-1.04v-3.9c0-.52.23-1.01.62-1.33a41.64 41.64 0 0 1 7.69-5.07c.44-.22.7-.66.7-1.17v-5.48c0-.35-.17-.67-.45-.86a1.54 1.54 0 0 1-.66-1.27v-5.7a4.04 4.04 0 0 1 3.98-4.09h1.2a4.04 4.04 0 0 1 3.98 4.09v5.7c0 .51-.24.98-.66 1.27-.29.19-.45.51-.45.86v5.48c0 .5.27.95.7 1.17.7.34 4.33 2.23 7.69 5.07.39.32.62.8.62 1.33v3.9c0 .58.45 1.04 1.01 1.04S41 49.54 41 48.96v-3.9c0-1.15-.49-2.22-1.35-2.94a43.9 43.9 0 0 0-7.66-5.11V32.5a3.62 3.62 0 0 0 1.11-2.63v-5.7a6.1 6.1 0 0 0-6-6.17h-1.2a6.1 6.1 0 0 0-6 6.17v5.7c0 1 .4 1.96 1.11 2.63z"/></svg>