<svg xmlns="http://www.w3.org/2000/svg" width="37" height="51" viewBox="0 0 37 51"><path fill="#1d79b1" d="M28.41 26.99A9.28 9.28 0 0 0 30.1 8.77 10.61 10.61 0 0 0 19.53 0c-3.84 0-7.4 2.05-9.3 5.28a5.83 5.83 0 0 0-6.87 6.86A8 8 0 0 0 0 18.61c0 4.32 3.53 8.16 7.7 8.39h20.65l.06-.01zM2.06 18.61a5.98 5.98 0 0 1 3.02-5.16.98.98 0 0 0 .45-1.22 3.78 3.78 0 0 1 4.88-4.8c.5.18 1.06-.04 1.29-.52a8.7 8.7 0 0 1 7.84-4.88c4.49 0 8.19 3.3 8.62 7.68a1 1 0 0 0 .85.9 7.26 7.26 0 0 1 5.94 7.14 7.33 7.33 0 0 1-6.64 7.22H7.79c-3.12-.18-5.73-3.09-5.73-6.36z"/><path fill="#ff5656" d="M18.5 31c-.56 0-1.02.46-1.02 1.03v12.04a3.54 3.54 0 0 0 .94 6.93h.08a3.54 3.54 0 0 0 1.02-6.93V32.03c0-.57-.46-1.03-1.02-1.03zm1.07 15.43c.26.29.42.67.41 1.06-.02.8-.68 1.45-1.47 1.45h-.04a1.48 1.48 0 0 1-1.03-.45 1.55 1.55 0 0 1-.41-1.06c.02-.8.68-1.45 1.47-1.45h.04c.39 0 .75.16 1.03.45z"/><path fill="#1d79b1" d="M11.92 32.01v5.7a1.8 1.8 0 0 1-1.82 1.77H7.03a3.6 3.6 0 0 0-3.44-2.49A3.56 3.56 0 0 0 0 40.49 3.55 3.55 0 0 0 3.59 44a3.6 3.6 0 0 0 3.44-2.49h3.07c2.16 0 3.9-1.71 3.9-3.8v-5.7c0-.56-.46-1.01-1.04-1.01-.57 0-1.04.45-1.04 1.01zm-8.33 9.96a1.5 1.5 0 0 1-1.51-1.48c0-.82.67-1.47 1.51-1.47.83 0 1.52.65 1.52 1.47a1.5 1.5 0 0 1-1.52 1.48zM26.9 41.51h3.07A3.6 3.6 0 0 0 33.41 44 3.56 3.56 0 0 0 37 40.49c0-1.93-1.61-3.5-3.59-3.5a3.58 3.58 0 0 0-3.44 2.49H26.9a1.8 1.8 0 0 1-1.82-1.77v-5.7c0-.56-.46-1.01-1.04-1.01-.58 0-1.04.45-1.04 1.01v5.7c0 2.09 1.74 3.8 3.9 3.8zm6.51-2.49c.83 0 1.51.65 1.51 1.47s-.67 1.48-1.51 1.48a1.5 1.5 0 0 1-1.52-1.48c0-.82.67-1.47 1.52-1.47z"/></svg>